<?xml version="1.0" encoding="utf-8"?>
<!-- Generator: Adobe Illustrator 22.0.1, SVG Export Plug-In . SVG Version: 6.00 Build 0)  -->
<svg version="1.1" id="Capa_1" xmlns="http://www.w3.org/2000/svg" xmlns:xlink="http://www.w3.org/1999/xlink" x="0px" y="0px"
	 width="480px" height="720px" viewBox="0 0 480 720" style="enable-background:new 0 0 480 720;" xml:space="preserve">
<style type="text/css">
	.st0{fill:#FFFFFF;}
	.st1{fill:#1E2D53;}
	.st2{clip-path:url(#SVGID_2_);fill:#1E2D53;}
</style>
<g>
	<path class="st0" d="M239.3,715.5c-0.1,0-0.3,0-0.4,0c-0.7-0.4-1.4-0.8-2.1-1.2c-76.8-38.5-153.5-77-230.3-115.4
		c-0.7-0.3-1.4-0.6-2.2-0.9c0-153.5,0-307,0-460.4c0.4-0.1,0.9-0.1,1.3-0.2c19.4-4,38.8-8.3,58.3-11.9c17-3.1,34-5.6,51.1-7.9
		c15.1-2,30.2-3.7,45.4-5.1c14.9-1.3,29.8-2.4,44.7-2.8c19.3-0.5,38.7-0.6,58.1,0c17.7,0.6,35.3,2.1,52.9,3.7
		c15.2,1.4,30.4,3.2,45.6,5.4c18.2,2.6,36.4,5.5,54.4,9c19.9,3.9,39.6,8.5,59.4,12.9c0,152.2,0,304.3,0,456.5
		c-0.8,0.3-1.6,0.5-2.4,0.9c-77.3,38.7-154.6,77.5-231.9,116.2C240.6,714.7,240,715.1,239.3,715.5z"/>
	<g>
		<path class="st1" d="M433.4,109.3c-0.6-10.3-1.1-20.2-1.6-30c-0.2-3.9-0.3-4,3.3-5.6c8.6-4,17.2-8,25.8-12
			c0.4-0.2,0.7-0.4,1.3-0.7c-0.6-0.2-1-0.4-1.3-0.5c-10-2.3-19.9-4.7-29.9-7c-1.7-0.4-2.2-1.1-2.4-2.8c-1-10.2-2.1-20.3-3.2-30.5
			c0-0.4-0.1-0.8-0.3-1.7c-1.8,2.8-3.3,5.1-4.9,7.5c-4.3,6.8-8.7,13.5-13,20.3c-0.7,1.1-1.5,1.2-2.6,0.9c-9.7-2.3-19.4-4.6-29.2-6.9
			c-0.7-0.2-1.4-0.3-2.4-0.5c0.3,0.6,0.5,0.9,0.7,1.2c6.1,7.7,12.2,15.3,18.3,23c1.9,2.3,1.9,2.3,0.4,5c-4.9,8.7-9.9,17.4-14.8,26
			c-0.1,0.2-0.2,0.4-0.4,1c1.8-0.6,3.3-1.2,4.8-1.7c8.7-3.2,17.3-6.5,26-9.8c1.3-0.5,2-0.2,2.8,0.7c7,7.6,14.1,15.2,21.1,22.8
			C432.4,108.3,432.7,108.6,433.4,109.3z"/>
		<path class="st1" d="M300.1,0c-2.2,5.2-4.2,9.9-6.3,14.6c-2.2,5.2-4.5,10.4-6.7,15.6c-0.5,1.3-1.2,1.7-2.6,1.6
			c-10.1-0.8-20.2-1.4-30.3-2.1c-0.6,0-1.2,0-2.2,0c1.9,1.7,3.4,3.2,5,4.6c6.2,5.6,12.4,11.3,18.7,16.9c1.1,1,1.3,1.8,0.8,3.2
			c-3.6,9.6-7.2,19.3-10.8,28.9c-0.1,0.2-0.1,0.4-0.3,1.1c1.4-0.8,2.6-1.4,3.7-2c8.3-4.8,16.6-9.5,24.9-14.3
			c1.2-0.7,1.9-0.5,2.9,0.3c8.3,6.4,16.6,12.8,24.9,19.2c0.3,0.2,0.6,0.4,1.2,0.8c-0.8-3.6-1.4-6.8-2.2-10c-1.6-7-3.1-14-4.7-21
			c-0.4-1.6-0.1-2.5,1.3-3.4c8.4-5.6,16.7-11.4,25.1-17.1c0.3-0.2,0.6-0.4,1.1-0.8c-0.7-0.1-1-0.2-1.4-0.3
			c-10.3-0.7-20.5-1.4-30.8-2c-1.6-0.1-2.2-0.7-2.6-2.1c-2.7-9.9-5.5-19.8-8.2-29.8C300.6,1.3,300.4,0.9,300.1,0z"/>
		<path class="st1" d="M46.6,109.3c0.6-10.3,1.1-20.2,1.6-30c0.2-3.9,0.3-4-3.3-5.6c-8.6-4-17.2-8-25.8-12c-0.4-0.2-0.7-0.4-1.3-0.7
			c0.6-0.2,1-0.4,1.3-0.5c10-2.3,19.9-4.7,29.9-7c1.7-0.4,2.2-1.1,2.4-2.8c1-10.2,2.1-20.3,3.2-30.5c0-0.4,0.1-0.8,0.3-1.7
			c1.8,2.8,3.3,5.1,4.9,7.5c4.3,6.8,8.7,13.5,13,20.3c0.7,1.1,1.5,1.2,2.6,0.9c9.7-2.3,19.4-4.6,29.2-6.9c0.7-0.2,1.4-0.3,2.4-0.5
			c-0.3,0.6-0.5,0.9-0.7,1.2c-6.1,7.7-12.2,15.3-18.3,23c-1.9,2.3-1.9,2.3-0.4,5c4.9,8.7,9.9,17.4,14.8,26c0.1,0.2,0.2,0.4,0.4,1
			c-1.8-0.6-3.3-1.2-4.8-1.7c-8.7-3.2-17.3-6.5-26-9.8c-1.3-0.5-2-0.2-2.8,0.7c-7,7.6-14.1,15.2-21.1,22.8
			C47.6,108.3,47.3,108.6,46.6,109.3z"/>
		<path class="st1" d="M179.9,0c2.2,5.2,4.2,9.9,6.3,14.6c2.2,5.2,4.5,10.4,6.7,15.6c0.5,1.3,1.2,1.7,2.6,1.6
			c10.1-0.8,20.2-1.4,30.3-2.1c0.6,0,1.2,0,2.2,0c-1.9,1.7-3.4,3.2-5,4.6c-6.2,5.6-12.4,11.3-18.7,16.9c-1.1,1-1.3,1.8-0.8,3.2
			c3.6,9.6,7.2,19.3,10.8,28.9c0.1,0.2,0.1,0.4,0.3,1.1c-1.4-0.8-2.6-1.4-3.7-2c-8.3-4.8-16.6-9.5-24.9-14.3
			c-1.2-0.7-1.9-0.5-2.9,0.3c-8.3,6.4-16.6,12.8-24.9,19.2c-0.3,0.2-0.6,0.4-1.2,0.8c0.8-3.6,1.4-6.8,2.2-10c1.6-7,3.1-14,4.7-21
			c0.4-1.6,0.1-2.5-1.3-3.4c-8.4-5.6-16.7-11.4-25.1-17.1c-0.3-0.2-0.6-0.4-1.1-0.8c0.7-0.1,1-0.2,1.4-0.3c10.3-0.7,20.5-1.4,30.8-2
			c1.6-0.1,2.2-0.7,2.6-2.1c2.7-9.9,5.5-19.8,8.2-29.8C179.4,1.3,179.6,0.9,179.9,0z"/>
		<g>
			<defs>
				<path id="SVGID_1_" d="M36.9,222.8l-0.8,16.4l1.6,334l200.6,107.2l205.5-106.4l-1.6-334.8c-134.6-40.6-270-40.2-406,0
					L36.9,222.8z"/>
			</defs>
			<clipPath id="SVGID_2_">
				<use xlink:href="#SVGID_1_"  style="overflow:visible;"/>
			</clipPath>
			<path class="st2" d="M410.3,178.9l71,83.1L70.7,613.1l-71-83.1L410.3,178.9z"/>
			<path class="st2" d="M409.9,193.6l71,83.1L70.3,627.8l-71-83.1L409.9,193.6z"/>
		</g>
		<path class="st1" d="M239.3,720c-0.1,0-0.3,0-0.4,0c-0.7-0.4-1.4-0.8-2.1-1.2C158.9,679.8,81,640.7,3.1,601.7
			c-0.7-0.4-1.5-0.6-2.2-0.9c0-155.7,0-311.5,0-467.2c0.4-0.1,0.9-0.1,1.3-0.2c19.7-4,39.4-8.4,59.2-12c17.2-3.1,34.5-5.7,51.9-8
			c15.3-2.1,30.7-3.8,46.1-5.1c15.1-1.3,30.3-2.5,45.4-2.9c19.6-0.5,39.3-0.6,58.9,0c17.9,0.6,35.8,2.1,53.7,3.7
			c15.5,1.4,30.9,3.2,46.3,5.5c18.5,2.7,36.9,5.6,55.3,9.1c20.2,3.9,40.2,8.7,60.3,13.1c0,154.4,0,308.8,0,463.3
			c-0.8,0.3-1.6,0.5-2.4,0.9c-78.4,39.3-156.9,78.6-235.3,117.9C240.7,719.1,240,719.6,239.3,720z M437.9,170.2
			c-0.7-0.2-1.3-0.4-1.8-0.6c-9-1.9-18-4-27.1-5.8c-31.8-6.3-63.7-11.6-96-14.6c-20.2-1.9-40.5-3.4-60.7-4.2
			c-28.9-1-57.7,0.1-86.5,3.3c-13.8,1.5-27.7,2.5-41.5,4.6c-22.6,3.4-45.1,7.4-67.6,11.4c-5.1,0.9-10.5,1.2-15,4.2
			c0,0.6,0,1.1,0,1.6c0,133.4,0,266.9-0.1,400.3c0,1.8,0.8,2.5,2.2,3.3c64.1,32.7,128.3,65.3,192.4,98.1c2,1,3.5,0.9,5.4-0.1
			c64.6-33,129.3-65.9,194-98.8c1.8-0.9,2.3-2,2.3-3.9c0-132.1,0-264.2,0-396.4C437.9,172,437.9,171.1,437.9,170.2z M398.3,152.6
			c1.9,0.3,3.4,0.7,4.8,0.8c3.9,0.3,7.8-1.9,9.1-5.6c1.5-4.1,2.7-8.3,6.3-11.5c-2.6-0.5-5.2-1.4-7.4-0.8c-3.5,1-6.2,3.7-7.2,7.4
			C403,146.6,401.6,149.7,398.3,152.6z M220.6,117.6c3.8,3.4,5.1,7.4,6,11.7c0.6,2.7,2.3,4.9,5,5.7c2.6,0.8,5.5,0.8,8.2,1.1
			c0.1-0.2,0.2-0.4,0.3-0.7c-3.2-2.9-4.1-6.8-5.1-10.7c-0.4-1.5-1.4-2.9-2.3-4.2C229.8,116.6,225.5,117.1,220.6,117.6z M79.2,150.9
			c-1.1-2.9-2.4-5.4-3.1-8.1c-1.6-5.6-11.4-11.1-17.2-7.9c4.9,2.8,7.3,7.2,8.8,12.4c0.4,1.5,1.8,2.8,2.9,4c0.5,0.5,1.5,0.8,2.2,0.7
			C74.9,151.8,77.1,151.3,79.2,150.9z M304.7,120.5c-1.7-0.1-2.6-0.2-3.6-0.3c-5.2-0.5-10.2,2.6-12.1,7.5c-1.3,3.3-2.5,6.6-3.8,10
			c1.2,0.1,2.8,0.3,4.4,0.4c4,0.2,6.4-1.2,7.6-5.1C298.5,128.2,300.1,123.9,304.7,120.5z M361.3,126.8c-2.2-0.2-4.6-0.9-6.6-0.4
			c-3.6,1-6.5,3.4-7.9,7c-1.3,3.3-2.5,6.7-3.8,10.2c1.1,0.2,2.6,0.2,4,0.6c3,0.8,5-0.6,6.6-2.8c0.7-1,1.3-2.1,1.6-3.3
			C356.1,133.9,357.9,130.2,361.3,126.8z M194.4,137c-1.1-3.2-2.2-6.2-3.4-9.3c-2.2-6.1-10.5-10.1-16.3-7.6c4.7,3,6.9,7.5,8,12.7
			c0.2,0.9,0.8,1.7,1.3,2.5c1.1,1.6,2.5,2.5,4.6,2.2C190.6,137.1,192.6,137.1,194.4,137z M116.6,125.9c4.6,3,7.2,7.1,8.3,12.2
			c0.4,1.5,1.5,2.9,2.5,4.3c0.3,0.4,1.1,0.8,1.7,0.8c2.5-0.2,5-0.6,7.3-0.9c-1-2.9-2.1-5.5-2.8-8.2
			C132.1,128.8,122.7,123.1,116.6,125.9z M94,148.4c-2.8-4.2-2.2-9.6-6.5-12.7c-3.9-2.9-8.1-5.2-13.6-3.6c0.7,0.6,1.1,1,1.6,1.4
			c2.9,2.3,4.8,5.2,5.8,8.8c0.3,1,0.6,2,1,2.9c1.6,3.4,3.8,4.5,7.5,3.9C91.2,148.8,92.4,148.6,94,148.4z M403.8,133.9
			c-0.1-0.2-0.2-0.3-0.3-0.5c-2.2-0.2-4.7-1-6.6-0.4c-4.3,1.4-7.2,4.4-8.5,9c-0.7,2.4-2.1,4.6-3.1,6.9c-0.2,0.4-0.3,0.7-0.5,1.1
			c6.4,1.1,11.2-0.9,13-5.7C399.2,140.6,400.4,136.6,403.8,133.9z M389.3,630.3c-2.3-2.3-4.9-4.4-6.8-7c-3.6-4.7-11.5-7-16.8-4.5
			c-0.6,0.3-1,0.6-1.9,1.1c4.8,1.3,8.5,3.4,11.1,7.2C378.8,633,383.5,633.9,389.3,630.3z M440.4,604.5c-3.4-1.3-6-3.2-7.9-6.1
			c-3.4-5.3-8.5-6.4-14.2-6c-1.4,0.1-2.7,1-4,1.5c4.6,1.8,7.8,4.6,10.4,8.4C427.9,606.9,435.4,607.9,440.4,604.5z M14.2,592.8
			c6.7,4,11.1,3.1,15.2-3c1.8-2.6,4.1-4.6,7-5.8c1.3-0.5,2.7-1,4.3-1.5c-2.8-2-5.7-1.8-8.6-1.7c-3.8,0.2-7.3,1.3-9.7,4.4
			C20.2,588.3,18.1,591.2,14.2,592.8z M439.1,581.5c1.9,0.8,3.6,1.2,4.9,2.2c2.2,1.8,4.4,3.8,6.2,6c3.6,4.5,11.6,5.7,15.4,2
			c-3.7-1.3-6.4-3.7-8.5-6.9c-3-4.3-9.9-6.5-14.9-4.8C441.1,580.4,440.2,580.9,439.1,581.5z M77.9,601.7c-4.2-3.3-13.7-2.2-17.4,2.2
			c-2.5,2.9-4.5,6.3-8.3,8.1c2.1,1,4.2,2,6.3,2.2c3.6,0.3,6.3-1.7,8.2-4.7c2.3-3.7,5.7-6,9.8-7.3C76.9,602.1,77.4,601.9,77.9,601.7z
			 M427,611.4c-2.3-2.2-5-4-6.8-6.5c-3.8-5.4-8.9-6.4-14.8-5.8c-1.3,0.1-2.5,1-3.8,1.5c4.4,1.7,8,3.8,10.6,7.6
			C415.8,613.7,421.4,614.8,427,611.4z M40.2,605.9c-0.2-0.1,0.1,0.2,0.5,0.3c5.7,2.7,10.6,1.5,14.2-3.7c2.2-3.3,5.2-5.5,8.9-6.8
			c0.4-0.1,0.8-0.4,1.4-0.6c-5-3.5-14.3-1.6-18.1,3.4C45.1,601.2,42.6,603.4,40.2,605.9z M326.3,639.2c0.2,0.1,0.4,0.3,0.6,0.3
			c4.7,1.1,8.3,3.7,11,7.8c3,4.6,8.6,6.2,13.2,2c-2.2-2.4-4.5-4.6-6.5-7.2c-3.5-4.5-13-6.4-17.8-3.4
			C326.5,638.8,326.5,639,326.3,639.2z M364,642.9c-2-1.8-4.4-3.4-5.8-5.7c-3.7-5.5-8.8-6.9-14.8-6.3c-1.4,0.1-2.8,0.8-4.2,1.3
			c0,0.2,0,0.4,0,0.6c4.6,1.2,8,3.9,10.7,7.8C353.3,645.5,359.1,646.3,364,642.9z M377,613.3c2,1,4.1,1.7,5.7,3
			c1.9,1.5,3.5,3.5,5,5.5c3.4,4.3,11,5.2,14.8,1.6c-3.6-1.4-5.9-4.2-8.1-7.2C390.7,611.3,382,609.9,377,613.3z M102.5,614.2
			c-4.6-3.4-13.5-2.2-17.2,2.2c-2.5,3-4.5,6.2-8.4,7.8c5.5,3.6,11.3,2.9,14.5-1.8C94.1,618.5,97.5,615.5,102.5,614.2z M115.5,643.6
			c4.8,3.3,10.4,2.5,13.9-2.6c2.5-3.6,5.5-6.2,9.7-7.5c0.2-0.1,0.4-0.3,0.7-0.4c-5-3.4-13.8-1.7-17.5,3.1
			C120.2,638.8,117.8,641.1,115.5,643.6z M115.4,620.7c-5-3.3-13.4-2.4-17.3,1.7c-2.7,2.8-5.2,5.7-7.7,8.6c4.6,3.1,9.5,2.9,12.6-1.4
			C106,625.3,109.6,622,115.4,620.7z M326.7,661.6c-2-2-4.1-3.8-5.8-6c-3.7-4.9-10.6-7.4-16.4-5.5c-0.8,0.3-1.6,0.8-3,1.4
			c5,1.4,8.5,3.7,11.1,7.6C316.5,664.6,321.3,665.3,326.7,661.6z M427,588c4.7,1.3,7.9,4.4,10.5,8.3c2.2,3.2,5.6,4,9.4,3.4
			c1.1-0.2,2.3-0.4,3.4-0.6c0.8-0.1,1.6-0.2,2.4-0.3c-3.4-2-5.7-4.4-7.8-7.4c-3.2-4.6-12.4-6.6-17.4-4
			C427.4,587.4,427.3,587.6,427,588z M152.6,662.2c4.5,3.4,10.1,2.7,13.6-2.2c2.5-3.6,5.5-6.4,9.8-7.7c0.2-0.1,0.3-0.3,0.4-0.4
			c-4.8-3.5-13.4-1.8-17.2,3.1C157.1,657.4,154.8,659.7,152.6,662.2z M128.2,650c5.2,4,10.1,2.2,12.5-1.4c3-4.3,6.6-7.6,12.1-8.8
			c-0.5-0.4-0.8-0.7-1.1-0.9c-4.9-2.8-13.3-0.9-16.8,3.5C132.8,645,130.5,647.4,128.2,650z M289,658.2c5,1.2,8.9,3.3,11.6,7.4
			c3.8,5.6,7.8,6.6,13.3,2.5c-2.2-2.5-4.5-5.1-6.7-7.6C303.4,656.1,294.1,654.8,289,658.2z M264.5,670.6c2.4,1.3,4.9,2.2,6.8,3.7
			c2,1.6,3.4,3.8,5.1,5.7c3.5,3.9,8.3,4.1,12.2,0.7c-2.1-2.4-4.2-4.8-6.3-7.2C278.5,669,269.4,667.5,264.5,670.6z M165.1,668.6
			c2,0.9,4,2.7,7,2.1c2.9-0.6,5-2.3,6.6-4.7c2.1-3.4,5.2-5.7,9-7c0.5-0.2,1-0.4,1.6-0.7c-5.2-3.5-13.7-2-17.5,2.7
			C169.7,663.6,167.4,666,165.1,668.6z M27.7,599.5c5.7,3.3,11.6,1.6,14.3-2.8c2.3-3.7,5.5-6.2,9.7-7.5c0.3-0.1,0.6-0.3,1.4-0.9
			c-4.8-0.8-9-1.4-13.1,0.1c-2,0.8-4,2.1-5.6,3.6C32,594.4,29.9,597.1,27.7,599.5z M214,671.1c-3.3-3.8-13.2-2-16.3,1.8
			c-2.4,2.8-4.8,5.5-7.2,8.3c4.2,3.2,9.9,2.8,13-1.6C206.2,675.7,209.3,672.5,214,671.1z M127,626.8c0-0.3,0-0.7,0-1
			c-3-0.1-6-0.3-9-0.2c-3.3,0.2-6.3,1.5-8.5,4.1c-2.2,2.5-4.3,5-6.5,7.5c4.4,3.2,10.6,2.2,14-2.7c1.8-2.6,3.9-4.9,6.8-6.3
			C124.9,627.8,125.9,627.3,127,626.8z M251.3,677.3c0.4,0.2,0.5,0.4,0.7,0.4c5,1.1,8.7,4,11.8,8.2c4.1,5.5,7.2,4.7,12.1,1.1
			c-1.8-2-3.8-4-5.4-6.2C266.8,675.8,257,673.8,251.3,677.3z M208.8,136.1c-0.8-2.7-1.8-5.3-2.3-7.9c-1.2-5.7-9.8-11.6-15.1-9.4
			c1.2,1.5,2.5,2.8,3.4,4.5c0.9,1.6,1.5,3.5,2,5.3C198.6,134.9,202.5,137.3,208.8,136.1z M270.9,136.6c5.2,0.9,9.9-1.3,11.5-5.8
			c1.4-4,2.3-8.2,5.9-11.2c-6.3-1.9-13,2.3-14.8,8.8C272.8,131,271.8,133.7,270.9,136.6z M226.8,677.6c-3.4-3.8-13.7-2.2-17.1,2.2
			c-2.1,2.7-4.4,5.1-6.7,7.7c5.2,4.1,9.7,2.6,12.6-1.6C218.5,681.8,221.9,678.9,226.8,677.6z M413.3,155.2c5.6,2,11.8-1,13.5-6.5
			c1-3.4,2.4-6.6,5-9.1c0.1-0.1,0.1-0.4,0.1-0.8c-1.8-0.2-3.8-1-5.4-0.5c-3.8,1.2-6.8,3.6-8,7.5
			C417.6,149.4,416.2,152.7,413.3,155.2z M375.6,637.2c-1.5-2-3.1-4.2-4.7-6.4c-3.9-5.5-12.3-7.8-18.7-5.1c-0.2,0.1-0.2,0.3-0.5,0.6
			c4,1.2,7.5,3.1,9.6,6.7C365.3,639.5,372,639.2,375.6,637.2z M64.5,153.6c-1-2.3-2.1-4.4-2.7-6.6c-1.7-5.6-8-10.4-13.8-10.4
			c-0.8,0-1.6,0.3-3,0.6c5,3.1,7.1,7.4,8.6,12.3c0.6,1.8,2.3,3.2,3.8,4.6c0.5,0.5,1.5,0.6,2.2,0.5C61.2,154.4,62.8,153.9,64.5,153.6
			z M177.8,674.8c4.5,3.4,10.4,2.5,13.8-2.5c2.2-3.3,5-5.8,8.8-7.2c0.3-0.1,0.6-0.3,1.1-0.7c-3.8-1.8-7.4-1.7-10.9-0.6
			c-2.3,0.7-4.7,2.1-6.5,3.7C181.8,669.6,179.9,672.3,177.8,674.8z M31.6,140c3.9,2.7,6.4,6,7.6,10.3c1.7,6,4.6,8.9,11.4,6
			c-1.2-3-2.3-5.9-3.5-8.9C44.9,141.8,37.3,138.1,31.6,140z M439.8,161c4.9,2,10.4,0.2,12.4-4.4c1.9-4.4,3.8-8.7,8.6-11.4
			c-2.6-0.6-4.6-1.1-6.6-1.5c-0.7-0.1-1.5,0-2.1,0.3c-2.9,1.5-5.1,3.8-6,7C445.2,155,443.4,158.4,439.8,161z M205.9,118
			c4.2,3.5,5.5,7.8,6.7,12.5c1.3,5.1,5.7,6.8,10.8,5.2c-0.9-2.8-1.9-5.6-2.7-8.5C218.9,121.1,212.8,117.1,205.9,118z M357.8,145.7
			c7,1.7,10-0.2,11.9-7.4c0.4-1.7,1.1-3.3,2-4.8c0.9-1.5,2.2-2.8,3.6-4.6c-1.9-0.2-3.6-0.8-5-0.3c-4.2,1.4-7.7,3.8-9.3,8.3
			C360,139.7,358.9,142.6,357.8,145.7z M447.1,180.9c3.4-3.2,7.4-4,11.4-4.7c5.1-0.9,8.6-6.6,7.6-11.3c-3,0.9-5.9,2.2-9,2.8
			C450.4,168.8,446.5,173.5,447.1,180.9z M447.2,474c4.6-3.2,4.8-3.3,10.4-4.2c5.8-1,9.4-6.1,8.5-12.3c-3.1,2.7-6.9,3.2-10.6,4
			C449.7,462.7,446.2,468.2,447.2,474z M466.1,331.6c-3.1,2.6-6.4,3.3-10,3.9c-6.2,1-10.6,7.3-8.8,12.7c2.9-2.5,6.3-3.7,10-4.2
			C463.4,343.1,466.9,338.3,466.1,331.6z M466.2,206.2c-3.2,2.8-6.9,3.3-10.6,4c-5.9,1.1-9.6,6.9-8.4,12.6c2.8-2.3,5.9-3.6,9.5-4.1
			C463.3,217.8,466.6,213.4,466.2,206.2z M447.3,390.5c3.3-3,7.3-3.8,11.4-4.6c5-0.9,8.3-6.5,7.3-12c-3,2.6-6.7,3.2-10.4,3.9
			C449.8,379,446.1,384.6,447.3,390.5z M466.2,247.9c-1.8,0.9-3.3,1.9-5,2.4c-1.7,0.6-3.6,0.7-5.4,1.1c-5.9,1.2-9.9,7-8.5,12.7
			c2.8-2.5,6.1-3.7,9.7-4.2C463.3,259.1,466.7,254.6,466.2,247.9z M447.2,306.2c1.8-1,3.6-2.2,5.5-2.9c2-0.7,4.1-0.9,6.2-1.4
			c4.9-1.2,8.1-6.5,7.2-11.7c-1.6,0.8-3.2,1.8-4.9,2.4c-1.8,0.6-3.7,0.7-5.6,1.2C449.9,295,446.1,300.6,447.2,306.2z M301.4,674.3
			c-1.7-1.9-3.5-3.5-4.9-5.5c-2.3-3.3-5.4-5.1-9.3-5.5c-2.3-0.2-4.7,0-7,0.1c-1,0-2.1,0.3-3.1,0.4c6.7,3.2,6.7,3.2,11.1,8.9
			C291.7,677.2,296.6,677.7,301.4,674.3z M447.3,431.9c3.3-3,7.3-3.8,11.4-4.6c5-0.9,8.3-6.5,7.3-12c-3,2.6-6.7,3.2-10.4,3.9
			C449.8,420.3,446.1,426,447.3,431.9z M466.2,526.9c-3.2,2.8-6.7,3.3-10.4,4c-6,1.1-9.9,7-8.5,12.7c2.8-2.5,6.1-3.7,9.7-4.2
			C463.3,538.5,466.7,534,466.2,526.9z M426.7,158c0.1,0.2,0.2,0.4,0.2,0.7c1.8-0.1,3.7-0.1,5.5-0.4c3.9-0.6,6.8-2.7,8-6.6
			c1-3.6,2.4-6.9,5.2-9.8c-2.2-0.5-4.5-1.3-6.3-0.7c-3.1,1-5.5,3.4-6.5,6.7C431.6,151.7,430.2,155.4,426.7,158z M273.5,118.5
			c-5.8-1.1-11.4,1.8-13.4,6.9c-1.4,3.5-2.4,7.1-3.6,10.8c0.9,0,1.9,0,2.9,0c4.3,0.1,7.2-1.8,8.2-6
			C268.6,126,269.8,121.9,273.5,118.5z M466.2,430.4c-3.5,0.9-6.7,2-10.1,2.7c-5.9,1.2-10,7.1-8.8,13.1c3.1-3,6.7-4.4,10.8-4.9
			C464.2,440.5,467.1,436.1,466.2,430.4z M466.1,178.2c-3.2,2.6-6.7,3.2-10.4,3.8c-4.7,0.8-10.8,6.7-8.4,12.8
			c2.8-2.5,5.9-4.3,9.8-4.6C462.9,189.9,467.4,185.6,466.1,178.2z M447.2,488.5c3.3-3.2,7-4.4,11.2-5c5.8-0.8,9.1-6.1,7.5-11.6
			c-2.9,2.4-6.4,3-10,3.6C450.1,476.4,446.2,482.2,447.2,488.5z M447.2,320.9c3.3-3.3,7.2-4.5,11.4-5.1c5.7-0.8,8.9-6,7.3-11.6
			c-2.9,2.4-6.4,3-10,3.6C450.1,308.8,446.3,314.5,447.2,320.9z M466,345.9c-3.1,2.7-6.9,3-10.6,3.8c-5.8,1.3-9.4,7.2-8.2,12.8
			c3.3-3.3,7.5-4.4,11.9-5.1C464.4,356.6,467.1,351.8,466,345.9z M447.2,278.6c3.3-3.3,7.2-4.5,11.4-5.1c5.7-0.8,8.8-5.9,7.3-11.6
			c-3,2.5-6.6,3-10.2,3.7C450,266.7,446.3,272.3,447.2,278.6z M466.2,499.7c-2.9,1-5.7,2.3-8.5,2.7c-4.3,0.6-7.2,2.8-9.6,6.2
			c-1.6,2.3-1,4.6-1,7.4c3.3-3,6.6-4.5,10.6-5C464,510.1,467,506,466.2,499.7z M447.2,558c3.4-3.3,7.2-4.5,11.4-5.1
			c5.7-0.8,8.8-5.9,7.5-10.9c-3.1,0.9-6.1,2.1-9.3,2.7C450.5,545.8,446.3,551.2,447.2,558z M447.1,237c1.9-1.2,3.5-2.4,5.3-3.2
			c1.9-0.8,3.9-1.1,5.9-1.5c5.9-1.1,8.9-5.4,7.9-11.1c-2.9,0.9-5.8,2.2-8.8,2.7C450.3,225.2,446.5,229.8,447.1,237z M447.3,404.8
			c3.4-3.4,7.6-4.3,12.1-5.2c5.3-1,8.3-6.5,6.8-10.7c-3.3,0.9-6.5,2.1-9.8,2.7C450.3,392.8,446,398.7,447.3,404.8z M389.2,131.3
			c-6.2-1.6-11.6,1.1-13.8,6.5c-1.3,3.3-2.5,6.6-3.7,9.9c5.2,2.1,9.1,0.2,10.9-4.8C384.1,138.7,385.2,134.5,389.2,131.3z
			 M13.8,207.5c-0.8,4.9,1.7,9.5,6.5,10.7c4.3,1,8.6,1.5,12.1,4.8c0.8-6.1-2.6-11.3-8.2-12.7C20.7,209.3,17.2,208.4,13.8,207.5z
			 M13.7,458.7c-0.6,6.2,2.3,10,8.8,11.3c2.6,0.5,5.1,1.6,7.6,2.6c0.8,0.3,1.5,1,2.4,1.6c0.5-6.5-3.1-11.5-8.8-12.8
			C20.4,460.6,17.1,459.6,13.7,458.7z M13.7,165.2c-0.7,6.2,2.3,10,8.7,11.3c2.5,0.5,5,1.5,7.4,2.4c0.9,0.3,1.6,1,2.6,1.7
			c0.5-6.4-3.1-11.5-8.8-12.7C20.4,167.1,17.2,166.2,13.7,165.2z M32.3,348.4c1-6.1-2.6-11.4-8.3-12.8c-3.4-0.9-6.8-1.8-10.2-2.7
			c-1,5.2,2.1,10.1,7.7,11C25.4,344.5,29.1,345.4,32.3,348.4z M13.8,375.1c-0.9,4.9,1.8,9.6,6.7,10.7c4.2,0.9,8.5,1.5,11.9,4.7
			c0.9-6-2.5-11.2-8.1-12.7C20.8,376.9,17.3,376,13.8,375.1z M32.3,432c0.9-6.2-2.6-11.4-8.3-12.8c-3.4-0.8-6.8-1.8-10.2-2.7
			c-1,5.4,2.1,10.1,8,11C25.6,428.1,29.2,429.1,32.3,432z M13.8,528.2c-0.8,6,2.2,10,8.5,11.2c2.3,0.4,4.5,1.1,6.7,2
			c1.2,0.5,2.3,1.4,3.5,2.2c0.7-6.4-3.1-11.5-8.9-12.7C20.3,530.1,17.1,529.1,13.8,528.2z M32.5,264.4c0.5-6.4-2.3-10.9-7.5-12.6
			c-3.7-1.2-7.5-2-11.2-3c-0.5,5.4,2.1,9.9,7.1,10.9C24.9,260.5,29,261.2,32.5,264.4z M13.7,291.1c-0.4,5.5,2.1,9.8,6.9,10.8
			c4.2,0.8,8.3,1.5,11.7,4.6c1-6-2.6-11.3-8.3-12.7C20.6,292.9,17.2,292,13.7,291.1z M37.2,159.2c-1.2-2.9-2.4-5.6-3.4-8.4
			c-2.1-6-9.7-10.1-15.4-7.9c4.7,2.3,5.7,6.6,7.5,10.7c1.1,2.4,3.3,4.3,5.2,6.4c0.3,0.4,1.1,0.6,1.5,0.5
			C34.2,160.1,35.8,159.6,37.2,159.2z M300.5,138.9c1.3,0.1,2.7,0.2,4.1,0.4c3,0.6,4.7-1,6-3.3c0.4-0.8,0.8-1.6,1-2.4
			c0.9-4.5,3.1-8.3,6.7-11.2c0.1-0.1,0.1-0.4,0.1-0.6c-5.6-1.7-13.8,4-15,8.9C302.7,133.4,301.5,136,300.5,138.9z M447.2,460.1
			c3.1-2.8,6.5-3.8,10.2-4.4c5.8-0.8,9.4-5.9,8.9-11.4c-3.3,0.8-6.7,1.7-10,2.5C450.7,448.3,446.5,454.3,447.2,460.1z M447.3,208.7
			c3.2-3,7.3-3.6,11.4-4.5c4.8-1,8.3-6.7,7.4-11.1c-3.2,0.8-6.4,1.8-9.6,2.4C452.1,196.4,445.3,203.5,447.3,208.7z M447.3,376.4
			c3.3-3,7.3-3.6,11.4-4.5c4.8-1,8.2-6.6,7.4-11.1c-3.2,0.8-6.4,1.8-9.6,2.4C452.1,364,445.3,371.1,447.3,376.4z M447.2,529.2
			c1.8-1,3.5-2.1,5.3-2.8c2-0.7,4.1-0.8,6.2-1.3c4.8-1.2,8.2-6.7,7.3-11.6c-1.5,0.7-3,1.5-4.6,2c-1.6,0.5-3.3,0.7-4.9,0.9
			C452.1,517,445.3,524.2,447.2,529.2z M466.2,276.6c-2.8,0.8-5.6,1.9-8.4,2.3c-5.5,0.9-8.6,4.4-10.6,9.1c-0.5,1.2-0.1,2.7-0.1,3.5
			c3.1-1.1,6.1-2.6,9.2-3.1C462.8,287.2,466.4,283.2,466.2,276.6z M13.8,430.6c-1.3,6,1.9,9.5,6.4,10.4c4.4,0.9,8.7,1.8,12.1,5.2
			c1.1-5.9-2.6-11.5-8.3-12.9C20.6,432.4,17.2,431.5,13.8,430.6z M32.3,195c1-4.2-0.3-7.3-3-9.9c-1.9-1.8-4.1-2.8-6.8-3.4
			c-3-0.6-5.9-1.7-8.8-2.5c-0.5,6.1,1.5,9.7,6.6,10.6C24.8,190.6,28.9,191.6,32.3,195z M32.5,237.4c0.5-6.7-3-11.8-8.6-13.2
			c-3.4-0.8-6.7-1.7-10-2.6c-1.4,6.1,2,9.6,6.6,10.4C24.8,232.8,28.9,233.9,32.5,237.4z M13.7,347c-0.3,2.8-0.6,6.1,2.4,8.2
			c1.8,1.3,4.2,1.8,6.3,2.7c2.7,1.1,5.5,2.2,8.2,3.4c0.6,0.3,1.1,0.8,1.8,1.3c0.7-6.4-3-11.7-8.7-13C20.4,348.8,17.1,347.9,13.7,347
			z M13.7,305.2c-1.4,7.4,3.5,10.3,8.7,10.9c1.9,0.2,3.7,0.8,5.4,1.6c1.6,0.7,3,1.9,4.6,2.9c0.8-6.2-3.1-11.7-8.9-12.9
			C20.3,307,17.1,306.1,13.7,305.2z M32.3,488.5c1-6.1-2.6-11.5-8.3-13c-3.4-0.9-6.8-1.7-10.2-2.6c-1,6.1,1.7,9.9,8.2,10.7
			C25.9,484.1,29.2,485.6,32.3,488.5z M13.8,500.1c-0.5,4.3-0.1,6.6,2.6,8.5c1.7,1.2,4,1.6,6,2.4c2.4,0.9,4.8,1.6,7.2,2.6
			c1,0.4,1.8,1.3,2.8,2c0.8-6.3-3.1-11.8-8.9-13C20.3,501.9,17.1,501,13.8,500.1z M32.3,278.6c1-6.1-2.7-11.6-8.4-13
			c-3.4-0.9-6.8-1.7-10.2-2.6c-0.9,6.2,1.7,9.9,8.2,10.7C25.9,274.2,29.3,275.7,32.3,278.6z M13.8,542.4c-1.3,6.1,2,9.5,6.4,10.4
			c4.4,0.8,8.7,1.8,12.1,5.2c1.1-5.9-2.6-11.5-8.3-12.9C20.6,544.1,17.2,543.2,13.8,542.4z M13.7,389.2c0,2.5-0.5,5.4,1.8,7.7
			c1.9,2,4.2,2.9,6.8,3.1c3.4,0.3,6.4,1.6,9,3.8c0.3,0.3,0.8,0.5,1.2,0.8c0.5-6.4-3-11.5-8.6-12.8C20.5,391,17.2,390.1,13.7,389.2z
			 M32.4,529.7c0.6-5.6-3.1-11.3-8.2-12.9c-3.4-1.1-7-1.8-10.4-2.6c-0.6,5.6,2.4,10.2,7.8,11.1C25.5,525.8,29.2,526.7,32.4,529.7z
			 M13.8,444.6c-0.7,5,2,9.8,6.9,10.8c4.1,0.9,8.3,1.5,11.7,4.6c0.8-5.4-3.2-11.4-8.5-12.9C20.5,446.1,17.1,445.4,13.8,444.6z
			 M13.8,193.4c-0.7,5,2.1,9.8,6.9,10.8c4.1,0.9,8.3,1.5,11.7,4.6c0.8-5.9-3.8-12.1-9.6-13.2C19.8,195,16.9,194.2,13.8,193.4z
			 M32.4,376.6c0.5-5.6-3-11.3-8-12.9c-3.5-1.1-7.1-1.8-10.6-2.7c-0.6,5.6,2.4,10.2,7.6,11C25.3,372.7,29.1,373.5,32.4,376.6z
			 M32.2,292.3c0.2-0.1,0.3-0.2,0.5-0.3c-0.2-1.5,0-3.2-0.6-4.6c-2.2-4.6-5.5-8-11-8.6c-1.8-0.2-3.6-1-5.4-1.6
			c-0.6-0.2-1.2-0.6-1.9-0.9c-0.5,6,2.3,10.5,7.3,11.5C25.1,288.7,29.1,289.4,32.2,292.3z M333.2,123.7c-5.4-1.8-13.3,2.4-15.5,8
			c-1,2.8-1.9,5.6-2.9,8.6c1.4,0.2,3.1,0.2,4.6,0.6c2.1,0.5,3.4-0.4,4.4-2c0.6-0.9,1.2-1.9,1.4-2.9
			C326.3,130.9,328.7,126.8,333.2,123.7z M107.8,146.2c-2.8-3.9-2.3-9.1-6.1-12.4c-3.8-3.4-9.8-5.3-12.8-3.8c4.8,3,7.2,7.4,8.4,12.7
			c0.3,1.3,1.3,2.6,2.3,3.7c0.5,0.5,1.5,0.8,2.3,0.8C103.7,147,105.6,146.5,107.8,146.2z M121.8,144.2c-2.7-4.2-2.3-9.4-6.3-12.5
			c-3.9-3-9.9-5.1-12.6-3.8c4.4,2.9,6.9,7.1,8,12.2c0.3,1.5,1.4,2.8,2.4,4.1c0.4,0.5,1.4,0.9,2.1,0.9
			C117.3,144.9,119.3,144.5,121.8,144.2z M258.7,118.1c-0.1-0.2-0.3-0.3-0.4-0.5c-1,0-2,0-3.1,0c-2.3-0.1-4.5-0.2-6.6,1.5
			c-3.8,3-4.1,7.4-5.4,11.4c-0.1,0.3,0.2,0.7,0.4,1c3,3.9,7.4,3.4,9.3-1.1c0.1-0.3,0.3-0.7,0.4-1
			C254.2,125.2,255.4,121.2,258.7,118.1z M160.3,120.6c-0.2,0.3-0.3,0.6-0.5,0.9c0.3,0.1,0.6,0.1,0.8,0.3c4,2.8,6.5,6.5,7.6,11.4
			c0.3,1.5,1.2,2.9,2.1,4.3c0.4,0.6,1.3,1.1,2,1.1c2.2,0,4.5-0.3,6.8-0.5c-0.7-1.8-1.5-3.2-1.8-4.7c-1.2-6.6-5.7-9.9-11.7-11.7
			C163.9,121.1,162.1,120.9,160.3,120.6z M89.7,607.9c0-0.3-0.1-0.6-0.1-0.9c-2.7-0.1-5.5-0.3-8.2-0.2c-3.2,0.1-6.3,1.1-8.5,3.5
			c-2.6,2.7-4.9,5.6-7.3,8.3c4.8,2.5,10,2,13-2C81.4,612.5,84.6,609.1,89.7,607.9z M414,617.9c-2.5-2.7-4.9-5.4-7.3-8.1
			c-3.5-4-12.7-5.6-17.3-2.7c5.1,1.3,8.3,4.7,11.1,8.6c2.1,2.9,5.3,3.6,8.6,3.2C411,618.7,412.6,618.2,414,617.9z M346.2,125
			c-0.7-0.1-1.1-0.3-1.5-0.2c-5.5,1-10.5,3.1-13,8.6c-1.3,2.7-2,5.6-2.9,8.4c6.7,1.4,10.3-1,12.2-7.6c0.5-1.9,1.4-3.8,2.4-5.6
			C344,127.3,345.1,126.3,346.2,125z M164.7,139.2c-0.8-2.7-1.3-5.4-2.5-7.6c-1.2-2.2-3-4.4-5.1-5.8c-2.2-1.5-5-2.2-7.6-3.2
			c-1.2-0.4-2.5-0.5-3.8-0.7c-0.1,0.2-0.1,0.4-0.2,0.6c0.3,0.3,0.6,0.6,0.9,0.8c4.3,2.8,7.1,6.6,8.2,11.7c0.3,1.3,1,2.6,1.7,3.8
			c0.3,0.5,1.2,1,1.8,1C160.2,139.7,162.4,139.5,164.7,139.2z M447.2,334.2c2.9-2.5,6.1-3.7,9.7-4.2c6-0.8,9.5-5.2,9.3-11.5
			c-1.6,0.7-3.2,1.5-4.8,2c-1.7,0.5-3.4,0.7-5.2,1C451.9,322.3,445.5,329.3,447.2,334.2z M132.1,123.9c3.9,2.9,6,6.4,7.2,10.7
			c2,7.2,4.7,7.7,11.4,5.8c-0.5-1.5-1.1-2.9-1.4-4.4c-0.8-3.8-2.9-6.6-6.2-8.4c-3-1.6-6.2-2.8-9.4-4.1
			C133.4,123.4,133,123.6,132.1,123.9z M13.8,319.2c-0.8,4.6,2.1,9.4,7,10.4c4.1,0.8,8.2,1.4,11.5,4.5c1-5.1-3.4-11.2-8.8-12.6
			C20.3,320.8,17,320,13.8,319.2z M29.6,575.9c0-0.3,0-0.6,0-0.9c-1.8-1.1-3.5-2.6-5.4-3.3c-3.4-1.2-7-1.8-10.4-2.7
			c0,5.7,0,11.7,0,17.6c0.2,0.2,0.3,0.4,0.5,0.5C18.2,581.8,22.2,576.6,29.6,575.9z M466.3,568.6c-3.4,0.9-6.6,1.9-9.8,2.6
			c-2.2,0.6-4.2,1.4-5.9,3.2c7,3.3,7,3.3,12.3,9.3c0.9,1,2,1.7,3.4,2.7C466.3,580,466.3,574.1,466.3,568.6z M140.8,656.2
			c4.1,2.9,9.9,1.8,13.2-3.1c2-3,4.5-5.4,7.9-6.7c0.7-0.3,1.3-0.6,2.3-1c-3.5-1.2-6.6-1-9.7-0.5c-3,0.5-5.5,1.8-7.5,4.2
			C144.9,651.4,142.8,653.8,140.8,656.2z M314.9,645c4.8,1.5,8.2,4.6,11.1,8.6c3,4.3,8.6,4.9,12.5,2.1c-2.1-2.4-4.1-5-6.4-7.3
			c-1.2-1.3-2.8-2.4-4.4-3.1C323.5,643.6,319.2,644.1,314.9,645z M466.2,486.4c-2.5,0.8-5,2-7.5,2.3c-5.3,0.6-8.7,3.5-11,8
			c-0.7,1.3-0.7,2.9-1.1,4.8c2.2-1.3,3.7-2.4,5.3-3c1.7-0.7,3.5-1,5.3-1.3C463.1,496.1,466.2,492.3,466.2,486.4z M13.8,486.8
			c-0.5,5.2,2.6,9.3,7.9,10.2c3.2,0.5,6.4,1.1,9,3.1c0.6,0.4,1.1,0.8,1.8,1.3c0.5-5.3-4-11.1-9.3-12.3
			C20.1,488.4,17,487.6,13.8,486.8z M466.2,402.8c-2.5,0.8-5,2-7.5,2.3c-5.4,0.6-8.8,3.7-11,8.2c-0.6,1.2-0.6,2.7-0.8,3.7
			c3.3-1.2,6.3-2.7,9.5-3.2C462.7,412.6,465.9,409.3,466.2,402.8z M446.7,250.1c2.3-1.2,4-2.4,5.8-3.1c1.9-0.7,4-0.8,6-1.3
			c4.7-1.1,8-5.8,7.5-10.5c-2.4,0.8-4.9,2-7.4,2.2c-5.4,0.6-8.8,3.7-11,8.2C447,246.9,447,248.4,446.7,250.1z M13.8,235.6
			c-0.4,5.1,2.8,9.4,8.1,10.2c3.4,0.5,6.6,1.2,9.3,3.4c0.4,0.3,0.8,0.5,1.3,0.7c0.5-5.1-4.1-10.9-9.3-12.1
			C20,237.2,17,236.4,13.8,235.6z M32.4,417.9c0.6-5-3.4-10.7-8.4-12.1c-3.4-1-6.8-1.7-10.2-2.6c-0.5,4.9,2.7,9.4,7.8,10.2
			C25.5,414,29.2,414.9,32.4,417.9z M32.3,570.8c0.2-0.5,0.3-0.7,0.3-0.9c0.2-4.3-4.3-9.9-9.1-11.1c-3.2-0.8-6.4-1.6-9.7-2.3
			c-0.8,4.2,1.5,8.2,6.2,9.1C24.5,566.3,28.9,567.2,32.3,570.8z M447.1,570.5c3.4-3.3,7.4-4.2,11.6-4.9c4.7-0.8,7.8-5.2,7.5-9.4
			c-3.4,0.8-6.8,1.7-10.2,2.6C451.2,560,446.7,565.6,447.1,570.5z M236.8,704.6c1.8-2.6,2.6-5.3,1.6-8.1c-1.1-3-2.5-5.9-4-9.3
			c-2,4.9-4.4,9.1-9.7,11.3C229,700.7,232.9,702.6,236.8,704.6z M246.1,682.4c1.4,2.6,2.5,4.9,3.8,7.1c2.4,4.2,8.8,6.2,13.3,4.1
			c0.1-0.1,0.2-0.3,0.2-0.3c-1.6-1.9-3.3-3.7-4.7-5.6C255.5,683.5,251.2,682.4,246.1,682.4z M13.8,146.9
			c-1.6,11.6,3.7,16.1,11.6,15.6c-3.3-3.2-4.9-7.1-6.2-11.3C18.5,148.7,16.3,147.5,13.8,146.9z M215.7,693.7
			c3.8,1.5,8.9,0.2,11.2-3.3c1.7-2.5,3-5.3,4.6-8.1c-4,0.3-7.3,1.4-9.8,4.4C219.7,689,217.7,691.3,215.7,693.7z M466.2,148.6
			c-3,1.1-5.5,2.7-7,5.5c-1.4,2.7-2.6,5.6-3.9,8.4C462.7,162.5,467.2,157,466.2,148.6z M240.9,685.1c-0.3,0.2-0.7,0.3-1,0.5
			c0.6,1.7,1,3.4,1.8,5c1.9,3.6,3,7.3,2,11.4c-0.1,0.4,0,0.8,0,1.5c3.1-1.6,6.1-3.1,9.4-4.8c-4.9-2-7.5-5.4-9.4-9.7
			C243.1,687.5,241.8,686.4,240.9,685.1z M240,122c1-1.7,1.8-3,2.6-4.5c-1.9,0-3.5,0-5.4,0C238.2,119,239,120.3,240,122z"/>
		<g>
			<path class="st1" d="M220.8,636.8c1.3,0,2.6,0,4.2,0c0.1,0.4,0.2,1.1,0.5,1.3c0.8,0.6,1.8,1.4,2.7,1.3c0.7-0.1,1.8-1.2,1.9-2
				c0.3-2.1,0.1-4.2,0.1-6.4c-1.3,0.3-2.3,0.7-3.4,0.7c-3.6,0.2-5.8-1.6-6.1-5.2c-0.2-2.9-0.3-5.9,0-8.9c0.3-3.3,3.4-5.9,6.7-6.1
				c3.3-0.2,6.4,2.2,7.2,5.5c0.2,0.8,0.3,1.7,0.3,2.6c0,5.4,0.1,10.9,0,16.3c-0.1,6-4.6,9.5-9.8,7.6
				C222.2,642.8,220.5,640,220.8,636.8z M225.3,622.2C225.4,622.2,225.4,622.2,225.3,622.2c0,1.3-0.3,2.7,0.1,3.8
				c0.3,0.9,1.6,2.3,2.2,2.2c1-0.2,2.3-1.3,2.5-2.2c0.4-2.3,0.4-4.8,0-7.1c-0.1-0.9-1.5-2.2-2.3-2.2c-0.8,0-1.9,1.3-2.3,2.3
				C225,619.9,225.3,621.1,225.3,622.2z"/>
			<path class="st1" d="M256.7,629.4c0-5.8,0-11.4,0-17.1c4.6,0,9,0,13.6,0c0,1.5,0,2.8,0,4.5c-2.9,0-5.9,0-9.1,0c0,2.4,0,4.5,0,6.7
				c5.6-2.7,9.2-0.6,9.4,5.5c0.1,3,0.1,5.9-0.1,8.9c-0.3,3.9-4,6.8-7.9,6.4c-4.1-0.4-6.7-3.5-6.4-8c1.2-0.1,2.5-0.1,3.9-0.2
				c0.2,0.6,0.3,1.4,0.7,1.7c0.9,0.7,2,1.7,3,1.6c0.8-0.1,2.2-1.4,2.2-2.2c0.3-2.9,0.3-5.9,0-8.9c-0.1-0.8-1.4-2-2.3-2.2
				c-0.7-0.1-1.7,1-2.4,1.7c-0.3,0.3-0.4,1-0.5,1.6C259.5,629.4,258.2,629.4,256.7,629.4z"/>
			<path class="st1" d="M251.4,632.7c1.1,0.1,2,0.2,3,0.3c0,1.5,0,2.9,0,4.4c-1,0.1-1.8,0.2-2.9,0.3c0,2.1,0,4.1,0,6.4
				c-1.6,0-3,0-4.6,0c0-2,0-4.1,0-6.4c-2.9,0-5.6,0-8.6,0c0.1-2.1-0.2-4,0.4-5.6c2.5-6.6,5.4-13.1,8.1-19.7c1.5,0,2.9,0,4.6,0
				C251.4,619.2,251.4,625.9,251.4,632.7z M246.5,632.7c0-3,0-6,0-9c-0.1,0-0.3,0-0.4,0c-1.1,2.9-2.3,5.8-3.5,9
				C244.2,632.7,245.3,632.7,246.5,632.7z"/>
			<path class="st1" d="M216.1,644.2c-1.5,0-2.9,0-4.5,0c0-8.2,0-16.3,0-24.6c-1.4-0.1-2.5-0.2-3.7-0.3c-0.7-1.9-0.3-3.1,1.7-3.7
				c0.9-0.3,1.6-1.3,2.5-1.8c1.1-0.7,2.3-1.4,4-2.4C216.1,622.9,216.1,633.5,216.1,644.2z"/>
		</g>
		<g>
			<path class="st1" d="M253.3,347.9c0,1.5,0,2.8,0,4.1c0.4,18.3,0.7,36.6,1.4,54.9c0.7,18.5,1.6,37,2.5,55.5
				c0.6,11.5,0.7,23.1,1.9,34.5c1.2,11.2,3.2,22.3,5.3,33.4c1.3,6.8,6.9,8.9,13,9.8c11,1.7,21.4-0.6,31.7-4.3
				c24-8.9,42.6-24.1,54.3-47.1c2.4-4.7,2.3-4.9-3.1-5.5c-4.2-0.5-8.4-1-12.6-1.4c-0.6-0.1-1.1-0.2-1.9-0.4c2.5-3.2,5-6.2,7.3-9.4
				c6.5-8.7,11.5-18.2,13.8-29c1.2-5.5,1.6-11.1,0.4-16.7c-0.2-0.8-0.1-1.7-0.2-2.9c0.7,0.4,1.1,0.6,1.4,0.8
				c12.7,11.7,22.1,25.3,26,42.3c1.9,8.3,1.2,16.4-1.1,24.5c-0.6,2.2-1.2,4.5-1.8,7c-2.6-1.9-5.1-3.6-7.5-5.3
				c-1.1-0.8-2.2-1.6-3.4-2.4c-2.4-1.6-2.7-1.5-3.4,1.3c-1.2,4.3-2.2,8.8-3.8,13c-5.5,14.8-15.3,26.6-27,36.9
				c-18.9,16.6-40.8,28.3-64,37.4c-14.5,5.7-28.6,12.2-41.8,20.7c-0.6,0.4-1.8,0.6-2.3,0.2c-16.5-11.4-35.3-17.8-53.4-25.7
				c-18-7.9-35-17.7-50.1-30.4c-14.4-12-25.9-26-31.5-44.3c-0.8-2.6-1.4-5.3-2-8c-0.6-2.4-1.1-2.7-3.2-1.2
				c-3.5,2.4-6.9,4.9-10.5,7.5c-0.3-0.7-0.7-1.2-0.9-1.8c-1.8-7.1-4.7-14.1-3.6-21.6c0.9-5.8,2.2-11.6,4-17.1
				c4.4-13.4,13-24,23.3-33.3c0.2-0.2,0.5-0.3,1.1-0.6c-0.2,1.9-0.4,3.3-0.6,4.8c-1.3,9.6,0.9,18.5,4.7,27.2
				c3.6,8.4,8.8,15.9,14.7,22.9c0.8,0.9,1.6,1.9,2.7,3.2c-2.3,0.3-4.3,0.5-6.2,0.8c-3.6,0.4-7.2,0.8-10.8,1.3
				c-2.5,0.3-2.8,0.9-1.7,3.3c4.6,9.8,10.8,18.5,18.6,26c14.7,14.2,32,23.4,52.1,27.1c6.9,1.3,13.6,1,20.3-0.8
				c5.5-1.5,8.3-5.4,9.4-10.7c2.7-13,4.5-26.1,5.3-39.4c1.3-21,2.5-41.9,3.4-62.9c0.8-20.3,1-40.7,1.5-61c0.1-5.3,0.2-10.6,0.3-16
				c0-0.4-0.1-0.7-0.1-1.4c-0.9,0-1.8,0-2.6,0c-12,0-24.1,0-36.1,0c-3.6,0-4-0.4-4-4c0-3.1,0-6.3,0-9.4c0-3,0.5-3.4,3.4-3.5
				c12,0,24.1,0,36.1,0c0.9,0,1.7,0,3,0c0-1,0-1.8,0-2.6c-0.2-5.8-0.4-11.5-0.5-17.3c0-2.5-1-4.1-3.2-5.2
				c-5.3-2.8-10.1-6.5-13.6-11.4c-13-18.1-5.9-43.1,14.9-52.7c21.7-10,43.7,1,51.4,17.5c7.9,16.8,1.9,36.1-14.4,45.3
				c-4,2.3-5.8,5.1-5.5,9.6c0.3,4.9,0.1,9.8,0,14.7c0,1.7,0.5,2.2,2.2,2.2c12.2-0.1,24.4,0,36.6,0c3.8,0,4,0.2,4,3.9
				c0,3.3,0,6.6,0,9.9c0,2.8-0.4,3.1-3.2,3.1c-12.5,0-25,0-37.4,0C255.2,347.9,254.4,347.9,253.3,347.9z M217.4,274.4
				c0.2,4.3,1.6,8.7,4.7,12.4c1.3,1.6,2.6,2,4.5,1.2c8.5-3.6,17-3.5,25.4,0c1.9,0.8,3.2,0.4,4.4-1.2c4.1-5.4,5.6-11.5,4-18.1
				c-2.6-10.5-15.1-17.8-25.6-15.3C224.5,256,217.4,264.3,217.4,274.4z"/>
			<path class="st0" d="M239.4,237.9c15.3,0,28.8,9.2,34.5,21.3c7.9,16.8,1.9,36.1-14.4,45.3c-4,2.3-5.8,5.1-5.5,9.6
				c0.3,4.9,0.1,9.8,0,14.7c0,1.7,0.5,2.2,2.2,2.2c0,0,0,0,0.1,0c6.3,0,12.5,0,18.8,0c5.9,0,11.9,0,17.8,0c3.8,0,4,0.2,4,3.9
				c0,3.3,0,6.6,0,9.9c0,2.8-0.4,3.1-3.2,3.1c-6.5,0-13,0-19.5,0c-5.3,0-10.6,0-15.9,0c-0.7,0-1.3,0-2,0c-0.3,0-0.6,0-0.9,0
				c-0.6,0-1.2,0-2,0c0,1.5,0,2.8,0,4.1c0.4,18.3,0.7,36.6,1.4,54.9c0.7,18.5,1.6,37,2.5,55.5c0.6,11.5,0.7,23.1,1.9,34.5
				c1.2,11.2,3.2,22.3,5.3,33.4c1.3,6.8,6.9,8.9,13,9.8c2.6,0.4,5.1,0.6,7.6,0.6c8.3,0,16.2-2,24.1-4.9c24-8.9,42.6-24.1,54.3-47.1
				c2.4-4.7,2.3-4.9-3.1-5.5c-4.2-0.5-8.4-1-12.6-1.4c-0.6-0.1-1.1-0.2-1.9-0.4c2.5-3.2,5-6.2,7.3-9.4c6.5-8.7,11.5-18.2,13.8-29
				c1.2-5.5,1.6-11.1,0.4-16.7c-0.2-0.8-0.1-1.7-0.2-2.9c0.7,0.4,1.1,0.6,1.4,0.8c12.7,11.7,22.1,25.3,26,42.3
				c1.9,8.3,1.2,16.4-1.1,24.5c-0.6,2.2-1.2,4.5-1.8,7c-2.6-1.9-5.1-3.6-7.5-5.3c-1.1-0.8-2.2-1.6-3.4-2.4c-1-0.7-1.6-1-2.1-1
				c-0.6,0-0.9,0.7-1.3,2.3c-1.2,4.3-2.2,8.8-3.8,13c-5.5,14.8-15.3,26.6-27,36.9c-18.9,16.6-40.8,28.3-64,37.4
				c-14.5,5.7-28.6,12.2-41.8,20.7c-0.4,0.2-1,0.4-1.5,0.4c-0.3,0-0.6-0.1-0.8-0.2c-16.5-11.4-35.3-17.8-53.4-25.7
				c-18-7.9-35-17.7-50.1-30.4c-14.4-12-25.9-26-31.5-44.3c-0.8-2.6-1.4-5.3-2-8c-0.3-1.4-0.7-2.1-1.3-2.1c-0.4,0-1,0.3-1.9,0.9
				c-3.5,2.4-6.9,4.9-10.5,7.5c-0.3-0.7-0.7-1.2-0.9-1.8c-1.8-7.1-4.7-14.1-3.6-21.6c0.9-5.8,2.2-11.6,4-17.1
				c4.4-13.4,13-24,23.3-33.3c0.2-0.2,0.5-0.3,1.1-0.6c-0.2,1.9-0.4,3.3-0.6,4.8c-1.3,9.6,0.9,18.5,4.7,27.2
				c3.6,8.4,8.8,15.9,14.7,22.9c0.8,0.9,1.6,1.9,2.7,3.2c-2.3,0.3-4.3,0.5-6.2,0.8c-3.6,0.4-7.2,0.8-10.8,1.3
				c-2.5,0.3-2.8,0.9-1.7,3.3c4.6,9.8,10.8,18.5,18.6,26c14.7,14.2,32,23.4,52.1,27.1c2.8,0.5,5.6,0.8,8.4,0.8c4,0,8-0.5,11.9-1.6
				c5.5-1.5,8.3-5.4,9.4-10.7c2.7-13,4.5-26.1,5.3-39.4c1.3-21,2.5-41.9,3.4-62.9c0.8-20.3,1-40.7,1.5-61c0.1-5.3,0.2-10.6,0.3-16
				c0-0.4-0.1-0.7-0.1-1.4c-0.9,0-1.8,0-2.6,0c-0.2,0-0.5,0-0.7,0c-6.2,0-12.5,0-18.7,0c-5.6,0-11.2,0-16.7,0c-3.6,0-4-0.4-4-4
				c0-3.1,0-6.3,0-9.4c0-3,0.5-3.4,3.4-3.5c12,0,24.1,0,36.1,0c0.3,0,0.7,0,1.1,0c0.6,0,1.2,0,1.9,0c0-1,0-1.8,0-2.6
				c-0.2-5.8-0.4-11.5-0.5-17.3c0-2.5-1-4.1-3.2-5.2c-5.3-2.8-10.1-6.5-13.6-11.4c-13-18.1-5.9-43.1,14.9-52.7
				C228.2,239,233.9,237.9,239.4,237.9 M224.8,288.5c0.5,0,1.1-0.1,1.7-0.4c4.2-1.8,8.4-2.7,12.7-2.7c4.3,0,8.5,0.9,12.8,2.7
				c0.6,0.3,1.2,0.4,1.7,0.4c1,0,1.9-0.5,2.7-1.6c4.1-5.4,5.6-11.5,4-18.1c-2.2-9.1-11.9-15.8-21.3-15.8c-1.4,0-2.9,0.2-4.3,0.5
				c-10.4,2.5-17.5,10.8-17.5,20.9c0.2,4.3,1.6,8.7,4.7,12.4C222.9,287.9,223.8,288.5,224.8,288.5 M111.5,423.4L111.5,423.4
				 M239.4,229.8c-6.9,0-13.8,1.5-20.4,4.6c-12.4,5.7-21.4,16.3-24.7,29.1c-3.2,12.3-0.8,25.3,6.7,35.7c3.8,5.3,8.8,9.6,15.3,13.3
				c0.1,3.5,0.2,7.1,0.3,10.5l-4.2,0c-8.9,0-17.7,0-26.6,0c-7.4,0-11.5,4.1-11.5,11.5c0,3.1,0,6.1,0,9.2l0,0.3
				c0,8.2,4,12.1,12.1,12.1l16.7,0l9.4,0l4.5,0c-0.1,3-0.1,6-0.2,9c-0.1,6.1-0.3,12.3-0.4,18.4c-0.3,13.9-0.6,28.4-1.1,42.5
				c-0.8,20.9-2.1,42.2-3.4,62.7c-0.8,12.8-2.5,25.6-5.2,38.2c-0.7,3.5-2.1,4.2-3.6,4.5c-3.3,0.9-6.6,1.3-9.8,1.3
				c-2.3,0-4.6-0.2-7-0.6c-18.4-3.4-34.1-11.6-48-25c-5.1-4.9-9.5-10.4-13.1-16.4c0.8-0.1,1.6-0.2,2.4-0.3c1.3-0.2,2.7-0.3,4.1-0.5
				l2.1-0.3l14.6-1.8l-9.4-11.4l-1-1.2c-0.6-0.8-1.2-1.4-1.7-2.1c-6.2-7.3-10.5-14-13.5-20.9c-3.8-8.7-5.1-16-4.1-22.9
				c0.1-1,0.3-2.1,0.4-3.2l0.2-1.7l1.9-15.7l-13.9,7.6c-0.1,0.1-0.3,0.1-0.4,0.2c-0.5,0.2-1.4,0.7-2.3,1.5
				c-13,11.8-21.1,23.4-25.6,36.8c-1.9,5.6-3.3,11.8-4.3,18.4c-1.2,7.6,0.8,14.4,2.5,20.4c0.4,1.5,0.9,2.9,1.2,4.4
				c0.4,1.4,1,2.5,1.3,3.1c0.1,0.1,0.1,0.2,0.2,0.3l4.2,8.5l7.7-5.5l3.2-2.3c0,0,0.1-0.1,0.1-0.1c5.5,17.8,16.6,33.5,34,48.1
				c14.9,12.4,31.9,22.8,52.1,31.6c4.2,1.9,8.6,3.6,12.7,5.4c14.1,5.8,27.4,11.3,39.3,19.6c1.5,1.1,3.4,1.6,5.4,1.6
				c2.1,0,4.3-0.6,6-1.7c11-7.1,23.8-13.5,40.3-20c27-10.7,48.8-23.4,66.4-38.9c14.2-12.5,23.8-25.6,29.2-40.1
				c0.7-1.9,1.3-3.7,1.8-5.6l1.6,1.1l2.4,1.7l9.6,6.8l2.9-11.4c0.2-0.8,0.4-1.6,0.6-2.4c0.4-1.5,0.7-3,1.1-4.3
				c3-10.1,3.4-19.5,1.3-28.6c-4-17.3-13.3-32.5-28.4-46.5c-0.9-0.9-1.8-1.3-2.4-1.6c-0.1-0.1-0.2-0.1-0.4-0.2l-13.4-8l1.2,15.5
				c0,0.3,0,0.6,0,0.9c0,0.8,0.1,1.9,0.3,3c0.8,4,0.7,8.2-0.4,13.4c-1.8,8.7-5.9,17.2-12.3,25.8c-1.5,2-3.1,4-4.8,6.2
				c-0.8,1-1.6,2-2.4,3l-8,10.1l12.6,2.8c0.2,0,0.4,0.1,0.6,0.1c0.6,0.1,1.3,0.3,2.2,0.4l0.2,0c2,0.2,4.1,0.5,6.1,0.7
				c-10.5,17.5-25.9,29.9-46.9,37.6c-8.2,3-14.9,4.4-21.3,4.4c-2.1,0-4.3-0.2-6.3-0.5c-5.8-0.9-6.1-2.3-6.3-3.4
				c-2-10.5-4-21.7-5.2-32.7c-0.9-8.2-1.2-16.7-1.5-24.9c-0.1-3-0.2-6.1-0.4-9.1l-0.6-11.8c-0.7-14.3-1.4-29.1-1.9-43.6
				c-0.5-12.8-0.7-25.9-1-38.6c-0.1-4-0.2-8-0.3-12.1l4.6,0l8,0c6.5,0,13,0,19.5,0c7.2,0,11.2-4,11.3-11.1c0-2.8,0-5.6,0-8.4l0-1.6
				c0-8.2-3.9-12-12.1-12l-2.7,0c-5,0-10.1,0-15.1,0c-4.3,0-8.5,0-12.8,0c0-3,0-6.1-0.2-9.2c0-0.9,0.1-1.1,0.1-1.2c0,0,0,0,0,0
				c0,0,0.3-0.4,1.3-1c19.9-11.1,27.5-35.1,17.8-55.8C273.9,240.2,257.1,229.8,239.4,229.8L239.4,229.8z M225.5,274.2
				c0.1-6.2,4.5-11.2,11.3-12.8c0.7-0.2,1.5-0.3,2.4-0.3c5.9,0,12.2,4.5,13.4,9.7c0.7,3,0.5,5.8-0.9,8.5c-4.1-1.3-8.2-2-12.4-2
				c-4.2,0-8.3,0.7-12.5,2C226,277.8,225.6,276.1,225.5,274.2L225.5,274.2z M111.6,415.3L111.6,415.3L111.6,415.3L111.6,415.3z"/>
		</g>
		<g>
			<path class="st1" d="M218,195.5c-1.7,0-3.4,0-5.4,0c-0.4-12.5-0.9-25-1.3-37.7c2.8,0,5.5,0,8.4,0c2,8.5,4.1,17.3,6.2,26
				c0.2,0,0.3,0,0.5,0c0.4-2.1,0.8-4.3,1.1-6.4c0.9-6,1.9-12,2.8-18c0.2-1.5,0.7-2.5,2.5-2.3c1.9,0.1,3.7,0,5.9,0
				c0.4,12.6,0.9,25.1,1.3,37.8c-1.9,0-3.6,0-5.7,0c-0.3-7.3-0.6-14.8-0.9-22.2c-0.2,0-0.3,0-0.5,0c-0.9,4.9-1.8,9.8-2.7,14.8
				c-0.3,1.8-0.7,3.5-0.9,5.3c-0.2,2.1-1.1,3-3.3,2.8c-1.3-0.1-1.9-0.4-2.3-1.8c-1.7-6.3-3.5-12.6-5.2-18.9
				c-0.2-0.7-0.4-1.4-0.6-2.2C218,180.3,218,187.7,218,195.5z"/>
			<path class="st1" d="M375.3,189.9c1.7-4.8,3.5-9.5,5.2-14.3c0.1-0.3,0.2-0.6,0.3-0.9c1.2-3.3,1.2-3.3,4.5-2.6
				c0.8,0.2,1.6,0.4,2.6,0.6c-0.4,6.7-0.7,13.3-1.1,19.9c0.1,0,0.3,0.1,0.4,0.1c2.3-6.2,4.5-12.5,6.8-18.8c1.9,0.4,3.7,0.7,5.8,1.2
				c-1.6,4.1-3,7.8-4.4,11.6c-2.8,7.2-5.7,14.4-8.3,21.7c-0.8,2.3-1.8,3-4.1,2.1c-0.7-0.3-1.4-0.4-2.4-0.6c0.3-6.7,0.6-13.4,0.9-20
				c-0.2,0-0.3-0.1-0.5-0.1c-2.4,6.3-4.7,12.5-7.1,18.9c-1.9-0.4-3.5-0.7-5.4-1.1c0.5-12.7,0.9-25.3,1.4-38.4c2,0.4,3.8,0.7,5.9,1.1
				c-0.4,6.6-0.7,13-1.1,19.5C375,189.8,375.2,189.9,375.3,189.9z"/>
			<path class="st1" d="M403.9,215.3c-2-0.5-3.7-0.9-5.5-1.4c3.1-12.4,6.2-24.5,9.3-36.9c2.1,0.5,4.1,1,6.3,1.5
				c0.4,8.5,0.8,17,1.3,25.4c0.2,0,0.3,0.1,0.5,0.1c2-7.8,4-15.6,6.1-23.6c1.9,0.5,3.6,0.9,5.5,1.3c-3.1,12.3-6.2,24.5-9.3,36.9
				c-1.8-0.4-3.6-0.7-5.3-1.3c-0.4-0.1-0.7-1.2-0.8-1.8c-0.6-7.4-1.2-14.8-1.8-22.2c0-0.2-0.1-0.4-0.5-0.7
				C407.7,200,405.8,207.5,403.9,215.3z"/>
			<path class="st1" d="M289.3,158.8c3.4,0.3,6.4,0.5,9.4,0.8c4.2,0.5,7.4,3.1,8.3,6.8c1.2,4.9-0.1,8.8-4.2,11.8
				c4.5,3.7,4.5,8.5,2.9,13.4c-1.3,4-5,6.3-9.3,6c-3.4-0.3-6.9-0.6-10.6-0.9C287,184,288.1,171.5,289.3,158.8z M292.5,191.5
				c2.7,0.7,4.9,0.9,6.5-1.4c1.5-2.2,1.7-5.9,0.4-7.9c-1.1-1.6-3.3-2.2-5.9-1.5C293.2,184.3,292.9,187.8,292.5,191.5z M294.1,174.8
				c2.4,0.3,4.6,0.9,6.1-1.4c1.2-1.8,1.4-5.1,0.3-6.6c-1.4-1.9-3.3-2-5.5-1.7C294.7,168.4,294.4,171.5,294.1,174.8z"/>
			<path class="st1" d="M325.8,200.7c-0.4-4-0.8-7.7-1.2-11.4c-0.4-3.6-0.5-3.7-4.6-3.4c-0.6,4.5-1.3,9.1-1.9,13.9
				c-1.9-0.2-3.6-0.5-5.6-0.7c1.7-12.6,3.3-25,5.1-37.9c4.5,0.8,8.8,1.4,13,2.6c3.3,1,4.4,4,4.2,7.2c-0.1,2.8-0.6,5.7-1.1,8.5
				c-0.3,1.3-1,2.7-1.9,3.5c-1.9,1.5-1.7,3.2-1.5,5.2c0.6,4.1,1.1,8.2,1.6,12.3c0,0.3,0,0.7-0.1,1.3
				C329.8,201.2,327.9,201,325.8,200.7z M320.7,180.1c1.6,0.1,2.9,0.4,4.3,0.4c1.8,0,2.9-1.1,3.3-2.9c0.4-2,0.8-4,0.8-6
				c0-1.1-0.9-2.7-1.8-3.2c-1.3-0.7-3.1-0.6-4.8-0.9C321.8,171.9,321.3,175.8,320.7,180.1z"/>
			<path class="st1" d="M206.1,196.1c-2,0.1-3.7,0.3-5.4,0.3c-0.5,0-1.1-0.8-1.3-1.4c-1.1-3.1-2.1-6.2-3.2-9.4
				c-1.2-3.5-1.2-3.5-5.1-2.5c0.2,2.5,0.4,5.1,0.6,7.7c0,0.4,0.2,0.9,0.2,1.3c0.1,5.7,1.4,5.3-5.4,5.1c-1-12.4-2-24.8-3-37.6
				c4-0.2,7.9-0.7,11.8-0.6c4,0.1,6.4,2.5,7.1,6.4c0.5,2.7,0.8,5.5,0.8,8.3c0,1.4-0.4,3-1.2,4c-1.5,1.8-1.2,3.4-0.4,5.3
				C203,187.3,204.5,191.5,206.1,196.1z M190.6,177c1.3,0,2.3,0,3.2,0c2.5-0.2,3.8-1.6,3.6-4.1c0-0.7-0.1-1.3-0.1-2
				c-0.2-6.2-1-6.8-7.2-6c-0.1,0-0.2,0.2-0.6,0.4C189.9,169.1,190.2,173,190.6,177z"/>
			<path class="st1" d="M246.6,188.5c0-5.6,0.1-10.8,0.1-16.1c0-2.3,0-4.5,0.1-6.8c0.2-5.2,4.5-9,10-8.8c4.9,0.2,8.7,4.4,8.6,9.5
				c-0.1,6.7-0.2,13.4-0.2,20c0,4.2-2.5,7.8-6.3,9c-4.1,1.3-8.3,0.1-10.7-3.3C247.5,190.9,247.1,189.5,246.6,188.5z M252.3,186.4
				c0.3,2.5,1.7,3.8,3.6,3.7c2-0.1,3.3-1.5,3.4-3.7c0.1-6.7,0.2-13.5,0.2-20.2c0-2-1.3-3.6-3.1-3.7c-2.1-0.1-3.7,1.2-3.8,3.3
				C252.4,172.7,252.4,179.8,252.3,186.4z"/>
			<path class="st1" d="M338.9,195.9c0.9-5.5,1.8-10.7,2.6-15.9c0.4-2.2,0.7-4.4,1.2-6.6c1-5.1,5.9-8.2,11.3-7.1
				c4.8,0.9,7.9,5.7,7,10.7c-1.2,6.6-2.2,13.2-3.3,19.8c-0.7,4.1-3.7,7.3-7.6,7.9c-4.3,0.6-8.2-1.2-10-4.9
				C339.5,198.4,339.3,197,338.9,195.9z M344.9,194.7c-0.1,2.5,1.1,4,3,4.2c2,0.2,3.5-1,3.9-3.2c1.1-6.6,2.3-13.3,3.4-19.9
				c0.3-2-0.7-3.7-2.5-4.1c-2-0.4-3.9,0.6-4.3,2.7C347.2,181.2,346,188.2,344.9,194.7z"/>
			<path class="st1" d="M66.1,200.3c-1.1,0.2-2,0.3-3.2,0.5c-0.4-1.7-0.9-3.4-1.4-5.3c3.1-0.7,6-1.3,9-2c1.2,4.8,2.4,9.4,3.3,14
				c0.8,4.4-2.6,8.6-7.5,9.7c-4.6,1-9.6-1.7-10.8-6.3c-1.8-6.9-3.5-13.8-5.1-20.8c-1.1-5,1.9-9.7,6.8-10.8c5-1.2,9.9,1.6,11.3,6.6
				c0.4,1.4,0.7,2.8,1,4.3c-1.9,0.4-3.6,0.8-5.6,1.3c-0.3-1.3-0.7-2.5-1-3.7c-0.6-2.4-2.4-3.6-4.5-3.1c-2.1,0.5-3,2.3-2.4,4.8
				c1.5,6.3,3.1,12.7,4.6,19c0.7,2.7,2.2,3.8,4.4,3.3c2.2-0.5,3-2.2,2.4-4.9C67.3,204.7,66.7,202.6,66.1,200.3z"/>
			<path class="st1" d="M92.8,172.5c2.2,10.1,4.4,20,6.4,29.9c1.2,6-5.9,11.3-12.1,9.4c-3.3-1.1-5.6-3.2-6.3-6.7
				c-2.1-9.6-4.2-19.2-6.3-28.9c1.9-0.4,3.6-0.7,5.5-1.1c1.2,5.5,2.3,10.8,3.5,16.2c0.9,4,1.8,8.1,2.7,12.1c0.6,2.5,2.2,3.7,4.2,3.3
				c2.2-0.4,3.2-2.2,2.6-4.9c-1.8-8.4-3.6-16.9-5.5-25.3c-0.5-2.2-0.2-3.3,2.2-3.3C90.6,173,91.5,172.7,92.8,172.5z"/>
			<path class="st1" d="M180.4,198c-5.6,0.6-10.9,1.1-16.5,1.7c-1.5-12.7-2.9-25.1-4.4-37.8c5.5-0.6,10.9-1.2,16.6-1.8
				c0.2,1.9,0.4,3.6,0.6,5.5c-3.1,0.3-6.1,0.7-9.1,1c-1.5,0.1-1.9,0.5-1.7,2.1c0.5,2.9,0.7,5.8,1,8.8c2.8-0.3,5.3-0.5,8-0.8
				c0.2,1.8,0.4,3.5,0.7,5.4c-2.7,0.3-5.2,0.6-8,1c0.4,3.5,0.8,6.9,1.2,10.5c3.7-0.4,7.2-0.7,11-1.1
				C180,194.4,180.2,196.1,180.4,198z"/>
			<path class="st1" d="M136.7,164.8c2-0.3,3.6-0.5,5.6-0.8c1.6,10.7,3.1,21.3,4.7,32.1c3.4-0.4,6.5-0.8,10.1-1.3
				c0.3,1.7,0.6,3.4,0.9,5.5c-5.3,0.7-10.4,1.4-15.9,2.1C140.3,189.9,138.5,177.4,136.7,164.8z"/>
			<path class="st1" d="M120.5,206.1c-0.9-5-1.8-9.8-2.6-14.6c-1.1-6.7-2.2-13.3-3.4-20c-0.5-2.8-0.7-3.4,2.5-3.4
				c0.8,0,1.6-0.2,2.6-0.4c1.9,10.8,3.7,21.4,5.6,32.1c3.5-0.5,6.7-1,10.1-1.5c0.3,1.9,0.6,3.5,0.9,5.4
				C131,204.4,125.9,205.2,120.5,206.1z"/>
			<path class="st1" d="M113.5,207.3c-1.9,0.4-3.6,0.7-5.6,1c-2.4-12.4-4.8-24.7-7.3-37.3c1.9-0.4,3.7-0.7,5.6-1.1
				C108.6,182.5,111,194.7,113.5,207.3z"/>
		</g>
		<path class="st1" d="M439.3,244.7c-133.5-35.6-267.8-35.6-399.2,0l-2.4-8.8c132.9-36.1,268.8-36.1,403.9,0L439.3,244.7z"/>
	</g>
</g>
</svg>
