<?xml version="1.0" encoding="UTF-8" standalone="no"?>
<svg
   version="1.1"
   width="514.43109"
   height="661.31653"
   id="svg69"
   viewBox="0 0 514.43109 661.31653"
   sodipodi:docname="Club Sportivo General San Martín.svg"
   inkscape:version="1.1.1 (3bf5ae0d25, 2021-09-20)"
   xmlns:inkscape="http://www.inkscape.org/namespaces/inkscape"
   xmlns:sodipodi="http://sodipodi.sourceforge.net/DTD/sodipodi-0.dtd"
   xmlns="http://www.w3.org/2000/svg"
   xmlns:svg="http://www.w3.org/2000/svg">
  <defs
     id="defs73" />
  <sodipodi:namedview
     id="namedview71"
     pagecolor="#ffffff"
     bordercolor="#666666"
     borderopacity="1.0"
     inkscape:pageshadow="2"
     inkscape:pageopacity="0.0"
     inkscape:pagecheckerboard="0"
     showgrid="false"
     fit-margin-top="0"
     fit-margin-left="0"
     fit-margin-right="0"
     fit-margin-bottom="0"
     inkscape:zoom="0.77444818"
     inkscape:cx="141.391"
     inkscape:cy="330.55795"
     inkscape:window-width="1600"
     inkscape:window-height="838"
     inkscape:window-x="-4"
     inkscape:window-y="-4"
     inkscape:window-maximized="1"
     inkscape:current-layer="svg69" />
  <g
     id="Layer1000"
     transform="translate(-40.4222,-90.3055)">
    <path
       d="m 40.6896,191.5517 c 61.7722,-7.4532 90.3855,-44.2109 96.3557,-100.9788 h 160.5925 160.5925 c 5.9702,56.7679 34.5834,93.5256 96.3556,100.9788 V 610.0658 L 297.6378,751.3169 40.6896,610.0658 Z"
       style="fill:#0d2037;fill-rule:evenodd;stroke:#0d2037;stroke-width:0.5348;stroke-linecap:butt;stroke-linejoin:miter;stroke-dasharray:none"
       id="path2" />
    <path
       d="m 55.3971,204.1119 v 124.187 h 484.4814 v -124.187 c -54.131,-10.6632 -85.0627,-45.1201 -94.4453,-98.8316 H 149.8424 c -9.3826,53.7115 -40.3143,88.1684 -94.4453,98.8316 z m 0,267.2605 v 129.9951 l 242.2407,133.166 242.2407,-133.166 V 471.3724 Z"
       style="fill:#ffffff;fill-rule:evenodd;stroke:#ffffff;stroke-width:0.5348;stroke-linecap:butt;stroke-linejoin:miter;stroke-dasharray:none"
       id="path4" />
    <path
       d="m 298.1111,663.8125 5.8357,18.0776 18.9961,-0.0364 -15.3899,11.1363 5.9049,18.0551 -15.3468,-11.195 -15.3469,11.195 5.905,-18.0551 -15.3899,-11.1363 18.9961,0.0364 z"
       style="fill:#0d2037;fill-rule:evenodd;stroke:#0d2037;stroke-width:0.5348;stroke-linecap:butt;stroke-linejoin:miter;stroke-dasharray:none"
       id="path6" />
    <path
       d="m 298.1111,603.9552 5.8357,18.0776 18.9961,-0.0363 -15.3899,11.1362 5.9049,18.0552 -15.3468,-11.1951 -15.3469,11.1951 5.905,-18.0552 -15.3899,-11.1362 18.9961,0.0363 z"
       style="fill:#0d2037;fill-rule:evenodd;stroke:#0d2037;stroke-width:0.5348;stroke-linecap:butt;stroke-linejoin:miter;stroke-dasharray:none"
       id="path8" />
    <path
       d="m 225.1144,603.9552 5.8357,18.0776 18.9962,-0.0363 -15.3899,11.1362 5.9049,18.0552 -15.3469,-11.1951 -15.3468,11.1951 5.9049,-18.0552 -15.3899,-11.1362 18.9962,0.0363 z"
       style="fill:#0d2037;fill-rule:evenodd;stroke:#0d2037;stroke-width:0.5348;stroke-linecap:butt;stroke-linejoin:miter;stroke-dasharray:none"
       id="path10" />
    <path
       d="m 373.5409,603.9552 5.8357,18.0776 18.9962,-0.0363 -15.3899,11.1362 5.9049,18.0552 -15.3469,-11.1951 -15.3468,11.1951 5.9049,-18.0552 -15.3899,-11.1362 18.9962,0.0363 z"
       style="fill:#0d2037;fill-rule:evenodd;stroke:#0d2037;stroke-width:0.5348;stroke-linecap:butt;stroke-linejoin:miter;stroke-dasharray:none"
       id="path12" />
    <path
       d="m 260.6394,544.5843 5.8356,18.0777 18.9962,-0.0364 -15.3899,11.1362 5.9049,18.0552 -15.3468,-11.1951 -15.3469,11.1951 5.905,-18.0552 -15.3899,-11.1362 18.9961,0.0364 z"
       style="fill:#0d2037;fill-rule:evenodd;stroke:#0d2037;stroke-width:0.5348;stroke-linecap:butt;stroke-linejoin:miter;stroke-dasharray:none"
       id="path14" />
    <path
       d="m 187.6427,544.5843 5.8357,18.0777 18.9961,-0.0364 -15.3899,11.1362 5.905,18.0552 -15.3469,-11.1951 -15.3468,11.1951 5.9049,-18.0552 -15.3899,-11.1362 18.9962,0.0364 z"
       style="fill:#0d2037;fill-rule:evenodd;stroke:#0d2037;stroke-width:0.5348;stroke-linecap:butt;stroke-linejoin:miter;stroke-dasharray:none"
       id="path16" />
    <path
       d="m 336.0692,544.5843 5.8357,18.0777 18.9962,-0.0364 -15.39,11.1362 5.905,18.0552 -15.3469,-11.1951 -15.3468,11.1951 5.9049,-18.0552 -15.3899,-11.1362 18.9962,0.0364 z"
       style="fill:#0d2037;fill-rule:evenodd;stroke:#0d2037;stroke-width:0.5348;stroke-linecap:butt;stroke-linejoin:miter;stroke-dasharray:none"
       id="path18" />
    <path
       d="m 409.5528,544.5843 5.8357,18.0777 18.9962,-0.0364 -15.3899,11.1362 5.9049,18.0552 -15.3469,-11.1951 -15.3468,11.1951 5.9049,-18.0552 -15.3899,-11.1362 18.9962,0.0364 z"
       style="fill:#0d2037;fill-rule:evenodd;stroke:#0d2037;stroke-width:0.5348;stroke-linecap:butt;stroke-linejoin:miter;stroke-dasharray:none"
       id="path20" />
    <path
       d="m 197.3756,485.4571 5.8356,18.0776 18.9962,-0.0364 -15.3899,11.1363 5.9049,18.0551 -15.3468,-11.195 -15.3469,11.195 5.905,-18.0551 -15.3899,-11.1363 18.9961,0.0364 z"
       style="fill:#0d2037;fill-rule:evenodd;stroke:#0d2037;stroke-width:0.5348;stroke-linecap:butt;stroke-linejoin:miter;stroke-dasharray:none"
       id="path22" />
    <path
       d="m 131.192,485.4571 5.8356,18.0776 18.9962,-0.0364 -15.3899,11.1363 5.9049,18.0551 -15.3468,-11.195 -15.3469,11.195 5.9049,-18.0551 -15.3899,-11.1363 18.9962,0.0364 z"
       style="fill:#0d2037;fill-rule:evenodd;stroke:#0d2037;stroke-width:0.5348;stroke-linecap:butt;stroke-linejoin:miter;stroke-dasharray:none"
       id="path24" />
    <path
       d="m 263.5592,485.4571 5.8357,18.0776 18.9962,-0.0364 -15.3899,11.1363 5.9049,18.0551 -15.3469,-11.195 -15.3468,11.195 5.9049,-18.0551 -15.3899,-11.1363 18.9962,0.0364 z"
       style="fill:#0d2037;fill-rule:evenodd;stroke:#0d2037;stroke-width:0.5348;stroke-linecap:butt;stroke-linejoin:miter;stroke-dasharray:none"
       id="path26" />
    <path
       d="m 334.1227,485.4571 5.8357,18.0776 18.9962,-0.0364 -15.3899,11.1363 5.9049,18.0551 -15.3469,-11.195 -15.3468,11.195 5.9049,-18.0551 -15.3899,-11.1363 18.9962,0.0364 z"
       style="fill:#0d2037;fill-rule:evenodd;stroke:#0d2037;stroke-width:0.5348;stroke-linecap:butt;stroke-linejoin:miter;stroke-dasharray:none"
       id="path28" />
    <path
       d="m 398.8466,485.4571 5.8357,18.0776 18.9961,-0.0364 -15.3899,11.1363 5.905,18.0551 -15.3469,-11.195 -15.3468,11.195 5.9049,-18.0551 -15.3899,-11.1363 18.9961,0.0364 z"
       style="fill:#0d2037;fill-rule:evenodd;stroke:#0d2037;stroke-width:0.5348;stroke-linecap:butt;stroke-linejoin:miter;stroke-dasharray:none"
       id="path30" />
    <path
       d="m 465.5169,485.4571 5.8357,18.0776 18.9962,-0.0364 -15.3899,11.1363 5.9049,18.0551 -15.3469,-11.195 -15.3468,11.195 5.9049,-18.0551 -15.3899,-11.1363 18.9962,0.0364 z"
       style="fill:#0d2037;fill-rule:evenodd;stroke:#0d2037;stroke-width:0.5348;stroke-linecap:butt;stroke-linejoin:miter;stroke-dasharray:none"
       id="path32" />
    <path
       d="m 160.4047,207.3743 13.106,40.6017 42.6645,-0.0821 -34.5644,25.0113 13.2621,40.5509 -34.4682,-25.1439 -34.4681,25.1439 13.2621,-40.5509 -34.5644,-25.0113 42.6645,0.0821 z"
       style="fill:#0d2037;fill-rule:evenodd;stroke:#0d2037;stroke-width:0.5348;stroke-linecap:butt;stroke-linejoin:miter;stroke-dasharray:none"
       id="path34" />
    <path
       d="m 434.8722,207.3743 13.1059,40.6017 42.6645,-0.0821 -34.5644,25.0113 13.2621,40.5509 -34.4681,-25.1439 -34.4682,25.1439 13.2621,-40.5509 -34.5644,-25.0113 42.6645,0.0821 z"
       style="fill:#0d2037;fill-rule:evenodd;stroke:#0d2037;stroke-width:0.5348;stroke-linecap:butt;stroke-linejoin:miter;stroke-dasharray:none"
       id="path36" />
    <path
       d="m 298.6828,105.6654 19.6529,60.8847 63.9781,-0.123 -51.8313,37.5056 19.8872,60.8088 -51.6869,-37.7049 -51.6871,37.7049 19.8871,-60.8088 -51.8312,-37.5056 63.978,0.123 z"
       style="fill:#0d2037;fill-rule:evenodd;stroke:#0d2037;stroke-width:0.5348;stroke-linecap:butt;stroke-linejoin:miter;stroke-dasharray:none"
       id="path38" />
    <path
       d="m 152.4921,279.8776 v -24.7348 h 9.2812 c 1.8885,0 3.4028,0.2477 4.5487,0.7485 1.1399,0.5009 2.0323,1.2726 2.6773,2.3147 0.6506,1.0362 0.9728,2.1246 0.9728,3.2645 0,1.0536 -0.2877,2.0497 -0.8579,2.9824 -0.5698,0.9328 -1.4335,1.6871 -2.5909,2.2628 1.497,0.4375 2.6484,1.186 3.4488,2.2455 0.8062,1.0536 1.2092,2.3029 1.2092,3.7424 0,1.1629 -0.2476,2.2398 -0.737,3.2359 -0.4893,0.9961 -1.0939,1.7617 -1.8135,2.3029 -0.7199,0.5356 -1.6237,0.9442 -2.7062,1.2207 -1.0884,0.2762 -2.4182,0.4145 -3.9959,0.4145 z m 3.2817,-14.3366 h 5.3489 c 1.451,0 2.4931,-0.0979 3.1207,-0.2877 0.8348,-0.2476 1.4624,-0.6621 1.8825,-1.2378 0.4204,-0.5758 0.6335,-1.2956 0.6335,-2.165 0,-0.8233 -0.1957,-1.5488 -0.5931,-2.1705 -0.3915,-0.6277 -0.9557,-1.0595 -1.6868,-1.2898 -0.7313,-0.2305 -1.9866,-0.3454 -3.7598,-0.3454 h -4.9459 z m 0,11.4347 h 6.1608 c 1.0595,0 1.8021,-0.0401 2.2339,-0.1209 0.7485,-0.1324 1.3817,-0.357 1.8885,-0.6736 0.5067,-0.3166 0.9212,-0.7774 1.2493,-1.3817 0.3284,-0.6046 0.4893,-1.3015 0.4893,-2.0901 0,-0.9271 -0.2358,-1.7274 -0.7137,-2.4125 -0.4722,-0.6851 -1.1284,-1.163 -1.9692,-1.4395 -0.8348,-0.2762 -2.044,-0.4145 -3.6159,-0.4145 h -5.723 z"
       style="fill:#ffffff;fill-rule:evenodd"
       id="path40" />
    <path
       d="m 426.4729,279.8776 v -24.7348 h 9.2812 c 1.8884,0 3.4028,0.2477 4.5486,0.7485 1.14,0.5009 2.0323,1.2726 2.6773,2.3147 0.6506,1.0362 0.9728,2.1246 0.9728,3.2645 0,1.0536 -0.2877,2.0497 -0.8578,2.9824 -0.5699,0.9328 -1.4336,1.6871 -2.5909,2.2628 1.4969,0.4375 2.6484,1.186 3.4487,2.2455 0.8063,1.0536 1.2092,2.3029 1.2092,3.7424 0,1.1629 -0.2476,2.2398 -0.7369,3.2359 -0.4894,0.9961 -1.094,1.7617 -1.8136,2.3029 -0.7199,0.5356 -1.6237,0.9442 -2.7062,1.2207 -1.0883,0.2762 -2.4181,0.4145 -3.9959,0.4145 z m 3.2816,-14.3366 h 5.349 c 1.4509,0 2.493,-0.0979 3.1206,-0.2877 0.8349,-0.2476 1.4625,-0.6621 1.8826,-1.2378 0.4204,-0.5758 0.6335,-1.2956 0.6335,-2.165 0,-0.8233 -0.1958,-1.5488 -0.5931,-2.1705 -0.3915,-0.6277 -0.9558,-1.0595 -1.6868,-1.2898 -0.7314,-0.2305 -1.9866,-0.3454 -3.7598,-0.3454 h -4.946 z m 0,11.4347 h 6.1608 c 1.0595,0 1.8021,-0.0401 2.234,-0.1209 0.7484,-0.1324 1.3817,-0.357 1.8884,-0.6736 0.5067,-0.3166 0.9212,-0.7774 1.2493,-1.3817 0.3284,-0.6046 0.4894,-1.3015 0.4894,-2.0901 0,-0.9271 -0.2359,-1.7274 -0.7137,-2.4125 -0.4723,-0.6851 -1.1285,-1.163 -1.9692,-1.4395 -0.8349,-0.2762 -2.0441,-0.4145 -3.6159,-0.4145 h -5.7231 z"
       style="fill:#ffffff;fill-rule:evenodd"
       id="path42" />
    <path
       d="m 271.1162,219.5336 18.9451,-49.3855 h 7.1847 l 20.1059,49.3855 h -7.4377 l -5.7134,-14.9674 h -20.7956 l -5.357,14.9674 z m 14.2088,-20.2784 h 16.8296 l -5.15,-13.6913 c -1.5518,-4.1617 -2.7244,-7.5987 -3.5408,-10.3118 -0.6781,3.2188 -1.5863,6.3801 -2.7244,9.5069 z"
       style="fill:#ffffff;fill-rule:evenodd"
       id="path44" />
    <path
       d="m 280.8491,220.0203 18.9451,-49.3855 h 7.1847 l 20.1059,49.3855 h -7.4377 l -5.7134,-14.9674 h -20.7956 l -5.357,14.9674 z m 14.2087,-20.2784 h 16.8297 l -5.1501,-13.6913 c -1.5517,-4.1617 -2.7243,-7.5987 -3.5407,-10.3118 -0.6782,3.2188 -1.5863,6.3801 -2.7244,9.5069 z"
       style="fill:#ffffff;fill-rule:evenodd"
       id="path46" />
    <path
       d="m 120.1346,360.2962 v -12.166 l 25.3057,-3e-4 11.436,45.9881 h 4.3799 v 12.1661 H 140.8171 V 394.118 h 3.4065 l -1.2167,-4.8665 h -13.1394 l -1.4598,4.8665 h 3.6499 v 12.1661 H 111.6184 V 394.118 h 3.8932 l 8.2729,-33.8218 z m 12.7746,17.0326 3.4066,-12.8963 3.8929,12.8963 z"
       style="fill:#ffffff;fill-rule:evenodd"
       id="path48" />
    <path
       d="m 308.1007,359.8095 v -12.166 l 25.3057,-3e-4 11.436,45.9882 h 4.3798 v 12.166 h -20.4391 v -12.166 h 3.4066 l -1.2168,-4.8666 h -13.1393 l -1.4598,4.8666 h 3.6498 v 12.166 h -20.4391 v -12.166 h 3.8932 l 8.2728,-33.8219 z m 12.7746,17.0326 3.4065,-12.8963 3.893,12.8963 z"
       style="fill:#ffffff;fill-rule:evenodd"
       id="path50" />
    <path
       d="m 166.2455,360.2962 v -12.166 h 16.2418 l 17.1546,33.518 v -21.352 h -4.1366 v -12.166 h 20.1958 v 12.166 h -4.0146 v 45.9879 h -12.0446 l -17.1546,-33.8826 v 21.7165 h 4.0149 v 12.1661 H 166.2455 V 394.118 h 4.1972 v -33.8218 z"
       style="fill:#ffffff;fill-rule:evenodd"
       id="path52" />
    <path
       d="m 479.6452,360.2962 v -12.166 h 16.2419 l 17.1545,33.518 v -21.352 h -4.1366 v -12.166 h 20.1958 v 12.166 h -4.0146 v 45.9879 h -12.0446 l -17.1545,-33.8826 v 21.7165 h 4.0148 v 12.1661 H 479.6452 V 394.118 h 4.1972 v -33.8218 z"
       style="fill:#ffffff;fill-rule:evenodd"
       id="path54" />
    <path
       d="m 241.433,394.118 h 3.5889 v -33.8218 h -3.7105 v -12.166 h 16.6066 l 10.2195,21.2908 10.7063,-21.2908 16.4852,-3e-4 v 12.1663 h -4.3796 v 33.8218 h 4.3796 l 0.1216,12.1661 h -20.6217 l 3e-4,-12.1661 h 4.1362 v -21.1691 l -10.7062,19.831 -10.2196,-19.831 v 21.1691 h 3.8932 v 12.1661 H 241.433 Z"
       style="fill:#ffffff;fill-rule:evenodd"
       id="path56" />
    <path
       d="m 454.4366,360.2962 v -12.166 h 20.1645 v 12.166 h -4.0093 v 33.8218 h 4.0093 v 12.1661 H 454.4366 V 394.118 h 3.7734 v -33.8218 z"
       style="fill:#ffffff;fill-rule:evenodd"
       id="path58" />
    <path
       d="m 403.9667,364.6643 v -16.5341 l 45.9886,-3e-4 v 16.5344 H 437.692 l -0.1179,-4.3681 h -3.8914 v 33.8218 h 3.8914 v 12.1661 H 416.9379 V 394.118 h 3.8913 v -33.8218 h -3.8913 v 4.3681 z"
       style="fill:#ffffff;fill-rule:evenodd"
       id="path60" />
    <path
       d="m 358.3021,394.118 h -4.216 v 12.1661 H 375.047 V 394.118 h -4.481 l -3e-4,-12.7971 h 4.4813 l 6.191,12.7971 h -2.2409 v 12.1661 H 400.223 V 394.118 h -6.4858 l -6.6034,-12.7971 h 4.4216 l 8.6676,-8.7255 v -16.2729 l -8.6079,-8.1926 -37.529,3e-4 v 12.166 h 4.216 z m 12.2639,-33.8218 h 13.3841 l 4.0095,3.6579 v 1.4183 l -3.9504,3.8036 -13.4432,-0.0591 z"
       style="fill:#ffffff;fill-rule:evenodd"
       id="path62" />
    <path
       d="m 65.534,356.588 8.6082,-8.4581 h 18.6317 l 2.2403,2.4441 v -2.4438 h 11.7331 v 16.5344 H 95.0142 v -2.6522 l -2.0045,-1.7162 H 82.043 l -3.5375,3.721 3.6555,5.0115 h 16.7448 l 7.8415,8.3001 v 20.4137 l -7.9594,8.5416 H 80.1562 l -2.3583,-2.6455 v 2.6455 H 65.6926 v -17.0326 h 11.8695 l -0.1179,2.3591 2.3582,2.5074 h 10.9667 l 4.2451,-3.9223 v -4.9527 l -4.2451,-3.9221 H 74.1422 l -8.6082,-8.9314 z"
       style="fill:#ffffff;fill-rule:evenodd"
       id="path64" />
    <path
       d="m 191.022,421.5098 h 21.7916 v 6.1351 h -12.9474 v 4.9797 h 11.075 v 5.7766 h -11.075 v 11.6328 h -8.8442 z m 25.4169,14.282 c 0,-4.6545 1.2948,-8.2798 3.8908,-10.8691 2.5962,-2.5963 6.2081,-3.891 10.8426,-3.891 4.7476,0 8.406,1.275 10.9755,3.8177 2.5695,2.5498 3.851,6.1221 3.851,10.71 0,3.3333 -0.5576,6.0622 -1.6796,8.1934 -1.1223,2.1313 -2.749,3.7913 -4.8671,4.9797 -2.1246,1.1886 -4.7674,1.7796 -7.9343,1.7796 -3.2137,0 -5.8763,-0.5113 -7.9878,-1.5338 -2.1047,-1.0293 -3.8178,-2.6493 -5.1257,-4.8669 -1.3081,-2.2112 -1.9654,-4.9863 -1.9654,-8.3196 z m 8.8041,0.0198 c 0,2.8752 0.5381,4.9468 1.6069,6.2017 1.0758,1.2547 2.5364,1.8855 4.3823,1.8855 1.8922,0 3.3664,-0.6174 4.4021,-1.8456 1.0423,-1.2352 1.5603,-3.4394 1.5603,-6.6331 0,-2.6826 -0.5444,-4.6414 -1.6266,-5.8763 -1.0889,-1.2416 -2.5565,-1.859 -4.4155,-1.859 -1.7793,0 -3.2137,0.6308 -4.2892,1.8855 -1.0822,1.2549 -1.6203,3.3399 -1.6203,6.2413 z m 25.6162,14.2224 v -28.5242 h 14.6871 c 2.7223,0 4.8072,0.2324 6.2414,0.7038 1.4408,0.4648 2.6026,1.3346 3.4859,2.596 0.883,1.2683 1.3213,2.8153 1.3213,4.6347 0,1.5801 -0.3386,2.9479 -1.0159,4.0967 -0.6707,1.1552 -1.6002,2.0847 -2.7888,2.8019 -0.7501,0.4514 -1.7861,0.8301 -3.0939,1.1288 1.049,0.3519 1.8124,0.6971 2.2906,1.049 0.3187,0.2324 0.7902,0.737 1.4076,1.5007 0.6108,0.7635 1.0226,1.3544 1.2282,1.7727 l 4.2828,8.2399 h -9.9596 l -4.7075,-8.698 c -0.5976,-1.1287 -1.129,-1.859 -1.5937,-2.1978 -0.6372,-0.4383 -1.3611,-0.6573 -2.1644,-0.6573 h -0.7768 v 11.5531 z m 8.8443,-16.9313 h 3.7247 c 0.3984,0 1.1819,-0.1329 2.3371,-0.3917 0.5843,-0.1129 1.0625,-0.4116 1.4277,-0.8964 0.3717,-0.4848 0.5579,-1.0359 0.5579,-1.66 0,-0.9229 -0.2923,-1.6334 -0.8766,-2.1246 -0.5843,-0.4979 -1.6799,-0.7437 -3.2934,-0.7437 h -3.8774 z m 21.9443,-11.5929 h 11.6261 l 4.4286,17.3561 4.4419,-17.3561 h 11.5732 v 28.5242 h -7.2109 v -21.7451 l -5.564,21.7451 h -6.5336 l -5.5506,-21.7451 v 21.7451 h -7.2107 z m 36.5647,14.282 c 0,-4.6545 1.2948,-8.2798 3.8908,-10.8691 2.5962,-2.5963 6.2081,-3.891 10.8426,-3.891 4.7476,0 8.406,1.275 10.9755,3.8177 2.5695,2.5498 3.851,6.1221 3.851,10.71 0,3.3333 -0.5576,6.0622 -1.6796,8.1934 -1.1224,2.1313 -2.749,3.7913 -4.8671,4.9797 -2.1246,1.1886 -4.7674,1.7796 -7.9343,1.7796 -3.2137,0 -5.8763,-0.5113 -7.9878,-1.5338 -2.1048,-1.0293 -3.8178,-2.6493 -5.1257,-4.8669 -1.3081,-2.2112 -1.9654,-4.9863 -1.9654,-8.3196 z m 8.8041,0.0198 c 0,2.8752 0.5381,4.9468 1.6069,6.2017 1.0758,1.2547 2.5364,1.8855 4.3823,1.8855 1.8922,0 3.3664,-0.6174 4.4021,-1.8456 1.0423,-1.2352 1.5603,-3.4394 1.5603,-6.6331 0,-2.6826 -0.5445,-4.6414 -1.6267,-5.8763 -1.0888,-1.2416 -2.5564,-1.859 -4.4154,-1.859 -1.7793,0 -3.2137,0.6308 -4.2892,1.8855 -1.0822,1.2549 -1.6203,3.3399 -1.6203,6.2413 z m 23.9828,4.7874 8.3662,-0.5246 c 0.1792,1.3546 0.5511,2.3903 1.1087,3.0941 0.9097,1.1488 2.2045,1.7264 3.891,1.7264 1.255,0 2.2243,-0.2922 2.9014,-0.8832 0.684,-0.591 1.0226,-1.2748 1.0226,-2.0516 0,-0.737 -0.3188,-1.4009 -0.9627,-1.9852 -0.6442,-0.5843 -2.1446,-1.1288 -4.5018,-1.6534 -3.8643,-0.8632 -6.613,-2.0184 -8.2597,-3.4592 -1.6601,-1.4341 -2.4899,-3.2667 -2.4899,-5.4977 0,-1.4608 0.4249,-2.8417 1.2748,-4.1432 0.8498,-1.3082 2.1248,-2.3305 3.8311,-3.0741 1.7064,-0.7437 4.0435,-1.1156 7.0115,-1.1156 3.6453,0 6.4207,0.6773 8.333,2.0384 1.9122,1.3544 3.0474,3.5124 3.4126,6.4737 l -8.2864,0.4915 c -0.219,-1.2948 -0.6838,-2.2377 -1.3876,-2.822 -0.7105,-0.5909 -1.6865,-0.8832 -2.9281,-0.8832 -1.0226,0 -1.7994,0.2193 -2.3174,0.6509 -0.5177,0.4316 -0.7768,0.9626 -0.7768,1.5868 0,0.4516 0.2126,0.8565 0.6308,1.2218 0.4051,0.3783 1.3879,0.7236 2.9415,1.049 3.851,0.83 6.6066,1.6732 8.2664,2.523 1.6665,0.8501 2.8816,1.8991 3.6386,3.1605 0.7568,1.2549 1.1354,2.6626 1.1354,4.2229 0,1.8259 -0.5046,3.5124 -1.514,5.0594 -1.0159,1.5405 -2.4233,2.7158 -4.2427,3.5124 -1.8125,0.7969 -4.0967,1.1953 -6.8588,1.1953 -4.847,0 -8.2068,-0.9362 -10.0725,-2.8019 -1.8657,-1.866 -2.9214,-4.2363 -3.1672,-7.1112 z m 47.8328,4.7339 h -9.9861 l -1.4344,4.7011 h -8.9967 l 10.7364,-28.5242 h 9.6476 l 10.6899,28.5242 h -9.2293 z m -1.8657,-6.1747 -3.1143,-10.2519 -3.1273,10.2519 z"
       style="fill:#ffffff;fill-rule:evenodd"
       id="path66" />
  </g>
</svg>
