<?xml version="1.0" encoding="UTF-8"?>
<!DOCTYPE svg  PUBLIC '-//W3C//DTD SVG 1.1//EN'  'http://www.w3.org/Graphics/SVG/1.1/DTD/svg11.dtd'>
<svg width="201pt" height="83pt" version="1.1" viewBox="0 0 201 83" xmlns="http://www.w3.org/2000/svg">
<g fill="#aaa">
<path d="m0 0h201v83h-201v-83m16.02 12.24c-0.05 9.25 0 18.51-0.02 27.76 1.83-0.01 3.66-0.01 5.49 0-0.04-2.75 0.01-5.5 0.09-8.25 3.76 0.01 7.92 0.41 11.14-1.93 6.01-4.06 4.78-15.02-2.4-17.07-4.68-1.04-9.54-0.28-14.3-0.51m25 0c-0.04 9.26-0.02 18.51-0.01 27.76 1.82-0.01 3.65-0.01 5.48 0 0-2.91 0.01-5.82 0-8.72 1.58 0.17 3.44-0.42 4.85 0.4 2.07 2.63 3.68 5.6 5.65 8.31 2.18 0.01 4.37 0.01 6.56 0.02-2.02-3.22-4.01-6.47-6.17-9.6 2.08-1.74 4.56-3.53 4.91-6.45 1.2-4.6-1.04-10.21-5.99-11.31-5.03-0.87-10.19-0.2-15.28-0.41m26.46 0c0.04 9.23 0.04 18.47-0.01 27.7 1.84 0.02 3.68 0.05 5.52 0.08 0.01-9.26 0.04-18.52-0.02-27.78-1.83 0.01-3.66 0.01-5.49 0m12.55-0.02c-0.06 9.26-0.02 18.52-0.03 27.78 1.83-0.01 3.66-0.01 5.49-0.01 0.02-5.99-0.02-11.98 0.02-17.98 2.44 3.98 4.94 7.92 7.46 11.84 2.58-3.93 4.98-7.98 7.54-11.93 0.01 6.03-0.02 12.06 0.01 18.09 1.82-0.01 3.65-0.02 5.47-0.01 0.01-9.26 0.03-18.52-0.01-27.78-2.1 0.01-4.21 0.04-6.31 0.11-2.11 3.92-4.43 7.73-6.67 11.58-2.24-3.85-4.55-7.66-6.67-11.57-2.1-0.08-4.2-0.11-6.3-0.12m32.23 0.04c-0.03 9.24 0 18.48-0.02 27.72 6.51 0.03 13.02 0.04 19.52 0-0.01-1.84-0.01-3.67-0.01-5.51-4.66 0.04-9.32 0.06-13.99 0.01 0.01-1.9 0-3.8-0.01-5.7 4-0.04 8-0.03 12-0.03-0.01-1.83 0-3.66 0.01-5.49-4-0.02-8-0.01-12-0.02 0.01-1.83 0.01-3.65 0-5.47 4.57-0.03 9.15-0.02 13.72 0.01 0.03-1.8 0.07-3.6 0.13-5.4-6.45-0.29-12.9-0.07-19.35-0.12m23.76-0.02c-0.04 9.25-0.01 18.51-0.02 27.76 1.83-0.01 3.66-0.01 5.49 0-0.01-2.91 0.02-5.82 0-8.73 1.59 0.06 3.23-0.16 4.78 0.26 2.06 2.71 3.73 5.7 5.72 8.46 2.19 0 4.37 0.01 6.56 0.02-2.01-3.19-3.95-6.42-6.16-9.48 1.25-1.13 2.56-2.21 3.61-3.54 3.24-4.79 1.47-13.01-4.72-14.34-5.03-0.86-10.18-0.2-15.26-0.41m35.97-0.02c-3.82 9.2-7.49 18.48-11.05 27.79 1.92-0.01 3.84-0.02 5.77-0.03 0.76-2.07 1.53-4.14 2.3-6.21 3.61-0.03 7.21-0.03 10.82-0.01 0.79 2.07 1.57 4.15 2.35 6.22 1.99 0.01 3.98 0.02 5.98 0.03-3.73-9.28-7.2-18.66-11.2-27.82-1.66 0.03-3.31 0.04-4.97 0.03m-156.47 37.77c-0.03 7.67-0.02 15.35 0 23.02 1.59-0.01 3.18-0.02 4.77-0.02 0.02-4.81-0.01-9.62 0-14.43 3.3 4.43 6.44 8.97 9.65 13.46 1.02 1.65 3.24 0.75 4.82 1.01-0.01-7.67-0.01-15.34 0-23-1.59-0.01-3.17-0.02-4.76-0.04-0.01 4.73 0.03 9.47-0.01 14.2-3.32-4.76-6.71-9.47-10.09-14.18-1.46 0-2.92-0.01-4.38-0.02m22.75 23.02c1.6-0.01 3.2-0.02 4.8-0.02 0.66-1.74 1.33-3.48 1.99-5.22 3.01-0.03 6.02-0.03 9.02-0.01 0.67 1.75 1.33 3.49 2 5.24 1.66-0.01 3.32-0.01 4.99 0-3.07-7.76-6.14-15.52-9.25-23.27-1.37-0.04-2.74-0.09-4.11-0.14-3.45 7.67-6.36 15.59-9.44 23.42m29.95-21.77c-6.94 4.44-7 16.15 0 20.56 4.61 3.08 11.17 1.92 14.73-2.24-0.99-1.07-1.97-2.15-2.95-3.23-1.96 1.5-4.31 3.35-6.96 2.53-6.76-1.6-6.73-13.17 0.04-14.73 2.54-0.73 4.78 1.04 6.76 2.35l3.09-3.69c-3.9-3.59-10.2-4.58-14.71-1.55m18.5-1.24c-0.02 7.66-0.02 15.32-0.01 22.98l4.77 0.03c0.04-7.67 0.01-15.34 0-23.02-1.59 0.01-3.17 0.01-4.76 0.01m16.56 0.36c-3.87 1.57-6.55 5.48-6.97 9.59-1.18 6.85 4.52 14.09 11.68 13.58 7.26 0.01 12.39-7.78 10.81-14.57-0.91-6.99-9.08-11.62-15.52-8.6m19.73-0.41c-0.01 7.68-0.02 15.37 0 23.06 1.58-0.02 3.16-0.03 4.75-0.03 0.01-4.76-0.06-9.52 0.06-14.28 3.63 4.63 6.87 9.55 10.35 14.3h4.11c0.02-7.66 0.03-15.33 0-22.99-1.59 0-3.17-0.01-4.76-0.01-0.04 4.71 0 9.41 0 14.12-3.22-4.34-6.26-8.82-9.44-13.18-1.12-1.64-3.43-0.68-5.07-0.99m31.91-0.21c-2.93 7.81-6.27 15.46-9.13 23.29 1.61-0.04 3.22-0.08 4.84-0.12 0.61-1.78 1.32-3.53 2.13-5.23 2.85 0.11 5.7 0.1 8.55-0.05 0.87 1.69 1.59 3.45 2.16 5.27 1.71 0.05 3.41 0.09 5.13 0.15-3.1-7.8-6.16-15.61-9.32-23.37-1.46 0.02-2.91 0.04-4.36 0.06m16.61 0.25c-0.04 7.66-0.03 15.33-0.01 23 5.17 0.01 10.34 0.02 15.51 0-0.04-1.51-0.07-3.01-0.09-4.51-3.55 0.04-7.1 0.03-10.65 0 0.01-6.16 0.01-12.32-0.01-18.47-1.59-0.01-3.17-0.01-4.75-0.02z"/>
<path d="m21.52 17.74c2.43 0.09 4.99-0.32 7.32 0.54 3.34 1.4 2.65 7.05-0.86 7.75-2.14 0.35-4.31 0.22-6.47 0.23-0.03-2.84-0.03-5.68 0.01-8.52z"/>
<path d="m46.5 25.68c-0.07-2.67-0.06-5.34 0.16-8.01 2.71 0.15 5.5-0.2 8.15 0.48 3.14 1.17 2.83 6.17-0.19 7.27-2.67 0.52-5.42 0.25-8.12 0.26z"/>
<path d="m141.49 25.69c-0.06-2.67-0.02-5.33 0.15-7.99 2.73 0.12 5.54-0.25 8.21 0.47 3.1 1.18 2.77 6.16-0.23 7.25-2.67 0.54-5.42 0.25-8.13 0.27z"/>
<path d="m171.07 28.25c1.05-2.95 2.17-5.88 3.46-8.74 1.13 2.88 2.17 5.81 3.22 8.72-2.23 0.01-4.45 0.02-6.68 0.02z"/>
<path d="m105.32 54.48c3.48-1.68 7.6 0.99 8.31 4.59 1.63 4.35-1.53 10.58-6.66 9.88-6.78-0.89-7.77-11.93-1.65-14.47z"/>
<path d="m49.54 55.85c1 2.44 1.94 4.91 2.85 7.39h-5.6c0.9-2.47 1.81-4.93 2.75-7.39z"/>
<path d="m157.09 55.83c0.96 2.46 1.88 4.94 2.77 7.43-1.87-0.01-3.75-0.02-5.62-0.02 0.94-2.47 1.88-4.95 2.85-7.41z"/>
</g>
<g fill="#fff">
<path d="m16.02 12.24c4.76 0.23 9.62-0.53 14.3 0.51 7.18 2.05 8.41 13.01 2.4 17.07-3.22 2.34-7.38 1.94-11.14 1.93-0.08 2.75-0.13 5.5-0.09 8.25-1.83-0.01-3.66-0.01-5.49 0 0.02-9.25-0.03-18.51 0.02-27.76m5.5 5.5c-0.04 2.84-0.04 5.68-0.01 8.52 2.16-0.01 4.33 0.12 6.47-0.23 3.51-0.7 4.2-6.35 0.86-7.75-2.33-0.86-4.89-0.45-7.32-0.54z"/>
<path d="m41.02 12.24c5.09 0.21 10.25-0.46 15.28 0.41 4.95 1.1 7.19 6.71 5.99 11.31-0.35 2.92-2.83 4.71-4.91 6.45 2.16 3.13 4.15 6.38 6.17 9.6-2.19-0.01-4.38-0.01-6.56-0.02-1.97-2.71-3.58-5.68-5.65-8.31-1.41-0.82-3.27-0.23-4.85-0.4 0.01 2.9 0 5.81 0 8.72-1.83-0.01-3.66-0.01-5.48 0-0.01-9.25-0.03-18.5 0.01-27.76m5.48 13.44c2.7-0.01 5.45 0.26 8.12-0.26 3.02-1.1 3.33-6.1 0.19-7.27-2.65-0.68-5.44-0.33-8.15-0.48-0.22 2.67-0.23 5.34-0.16 8.01z"/>
<path d="m67.48 12.24c1.83 0.01 3.66 0.01 5.49 0 0.06 9.26 0.03 18.52 0.02 27.78-1.84-0.03-3.68-0.06-5.52-0.08 0.05-9.23 0.05-18.47 0.01-27.7z"/>
<path d="m80.03 12.22c2.1 0.01 4.2 0.04 6.3 0.12 2.12 3.91 4.43 7.72 6.67 11.57 2.24-3.85 4.56-7.66 6.67-11.58 2.1-0.07 4.21-0.1 6.31-0.11 0.04 9.26 0.02 18.52 0.01 27.78-1.82-0.01-3.65 0-5.47 0.01-0.03-6.03 0-12.06-0.01-18.09-2.56 3.95-4.96 8-7.54 11.93-2.52-3.92-5.02-7.86-7.46-11.84-0.04 6 0 11.99-0.02 17.98-1.83 0-3.66 0-5.49 0.01 0.01-9.26-0.03-18.52 0.03-27.78z"/>
<path d="m112.26 12.26c6.45 0.05 12.9-0.17 19.35 0.12-0.06 1.8-0.1 3.6-0.13 5.4-4.57-0.03-9.15-0.04-13.72-0.01 0.01 1.82 0.01 3.64 0 5.47 4 0.01 8 0 12 0.02-0.01 1.83-0.02 3.66-0.01 5.49-4 0-8-0.01-12 0.03 0.01 1.9 0.02 3.8 0.01 5.7 4.67 0.05 9.33 0.03 13.99-0.01 0 1.84 0 3.67 0.01 5.51-6.5 0.04-13.01 0.03-19.52 0 0.02-9.24-0.01-18.48 0.02-27.72z"/>
<path d="m136.02 12.24c5.08 0.21 10.23-0.45 15.26 0.41 6.19 1.33 7.96 9.55 4.72 14.34-1.05 1.33-2.36 2.41-3.61 3.54 2.21 3.06 4.15 6.29 6.16 9.48-2.19-0.01-4.37-0.02-6.56-0.02-1.99-2.76-3.66-5.75-5.72-8.46-1.55-0.42-3.19-0.2-4.78-0.26 0.02 2.91-0.01 5.82 0 8.73-1.83-0.01-3.66-0.01-5.49 0 0.01-9.25-0.02-18.51 0.02-27.76m5.47 13.45c2.71-0.02 5.46 0.27 8.13-0.27 3-1.09 3.33-6.07 0.23-7.25-2.67-0.72-5.48-0.35-8.21-0.47-0.17 2.66-0.21 5.32-0.15 7.99z"/>
<path d="m171.99 12.22c1.66 0.01 3.31 0 4.97-0.03 4 9.16 7.47 18.54 11.2 27.82-2-0.01-3.99-0.02-5.98-0.03-0.78-2.07-1.56-4.15-2.35-6.22-3.61-0.02-7.21-0.02-10.82 0.01-0.77 2.07-1.54 4.14-2.3 6.21-1.93 0.01-3.85 0.02-5.77 0.03 3.56-9.31 7.23-18.59 11.05-27.79m-0.92 16.03c2.23 0 4.45-0.01 6.68-0.02-1.05-2.91-2.09-5.84-3.22-8.72-1.29 2.86-2.41 5.79-3.46 8.74z"/>
<path d="m15.52 49.99c1.46 0.01 2.92 0.02 4.38 0.02 3.38 4.71 6.77 9.42 10.09 14.18 0.04-4.73 0-9.47 0.01-14.2 1.59 0.02 3.17 0.03 4.76 0.04-0.01 7.66-0.01 15.33 0 23-1.58-0.26-3.8 0.64-4.82-1.01-3.21-4.49-6.35-9.03-9.65-13.46-0.01 4.81 0.02 9.62 0 14.43-1.59 0-3.18 0.01-4.77 0.02-0.02-7.67-0.03-15.35 0-23.02z"/>
<path d="m38.27 73.01c3.08-7.83 5.99-15.75 9.44-23.42 1.37 0.05 2.74 0.1 4.11 0.14 3.11 7.75 6.18 15.51 9.25 23.27-1.67-0.01-3.33-0.01-4.99 0-0.67-1.75-1.33-3.49-2-5.24-3-0.02-6.01-0.02-9.02 0.01-0.66 1.74-1.33 3.48-1.99 5.22-1.6 0-3.2 0.01-4.8 0.02m11.27-17.16c-0.94 2.46-1.85 4.92-2.75 7.39h5.6c-0.91-2.48-1.85-4.95-2.85-7.39z"/>
<path d="m68.22 51.24c4.51-3.03 10.81-2.04 14.71 1.55l-3.09 3.69c-1.98-1.31-4.22-3.08-6.76-2.35-6.77 1.56-6.8 13.13-0.04 14.73 2.65 0.82 5-1.03 6.96-2.53 0.98 1.08 1.96 2.16 2.95 3.23-3.56 4.16-10.12 5.32-14.73 2.24-7-4.41-6.94-16.12 0-20.56z"/>
<path d="m86.72 50c1.59 0 3.17 0 4.76-0.01 0.01 7.68 0.04 15.35 0 23.02l-4.77-0.03c-0.01-7.66-0.01-15.32 0.01-22.98z"/>
<path d="m103.28 50.36c6.44-3.02 14.61 1.61 15.52 8.6 1.58 6.79-3.55 14.58-10.81 14.57-7.16 0.51-12.86-6.73-11.68-13.58 0.42-4.11 3.1-8.02 6.97-9.59m2.04 4.12c-6.12 2.54-5.13 13.58 1.65 14.47 5.13 0.7 8.29-5.53 6.66-9.88-0.71-3.6-4.83-6.27-8.31-4.59z"/>
<path d="m123.01 49.95c1.64 0.31 3.95-0.65 5.07 0.99 3.18 4.36 6.22 8.84 9.44 13.18 0-4.71-0.04-9.41 0-14.12 1.59 0 3.17 0.01 4.76 0.01 0.03 7.66 0.02 15.33 0 22.99h-4.11c-3.48-4.75-6.72-9.67-10.35-14.3-0.12 4.76-0.05 9.52-0.06 14.28-1.59 0-3.17 0.01-4.75 0.03-0.02-7.69-0.01-15.38 0-23.06z"/>
<path d="m154.92 49.74c1.45-0.02 2.9-0.04 4.36-0.06 3.16 7.76 6.22 15.57 9.32 23.37-1.72-0.06-3.42-0.1-5.13-0.15-0.57-1.82-1.29-3.58-2.16-5.27-2.85 0.15-5.7 0.16-8.55 0.05-0.81 1.7-1.52 3.45-2.13 5.23-1.62 0.04-3.23 0.08-4.84 0.12 2.86-7.83 6.2-15.48 9.13-23.29m2.17 6.09c-0.97 2.46-1.91 4.94-2.85 7.41 1.87 0 3.75 0.01 5.62 0.02-0.89-2.49-1.81-4.97-2.77-7.43z"/>
<path d="m171.53 49.99c1.58 0.01 3.16 0.01 4.75 0.02 0.02 6.15 0.02 12.31 0.01 18.47 3.55 0.03 7.1 0.04 10.65 0 0.02 1.5 0.05 3 0.09 4.51-5.17 0.02-10.34 0.01-15.51 0-0.02-7.67-0.03-15.34 0.01-23z"/>
</g>
</svg>
